<?xml version="1.0" standalone="no"?>
<!DOCTYPE svg PUBLIC "-//W3C//DTD SVG 1.1//EN" "http://www.w3.org/Graphics/SVG/1.1/DTD/svg11.dtd" >
<svg xmlns="http://www.w3.org/2000/svg" xmlns:xlink="http://www.w3.org/1999/xlink" version="1.1">
<metadata>
Created by FontForge 20150804 at Thu Feb 22 14:38:01 2018
 By cloudconvert
Copyright (c) 2011 by vernon adams. All rights reserved.
</metadata>
<defs>
<font id="Oswald-Light" horiz-adv-x="838" >
  <font-face 
    font-family="Oswald"
    font-weight="300"
    font-stretch="ultra-condensed"
    units-per-em="2048"
    panose-1="2 0 5 6 0 0 0 2 0 4"
    ascent="1638"
    descent="-410"
    x-height="1198"
    cap-height="1721"
    bbox="-107 -522 1953 2246"
    underline-thickness="50"
    underline-position="-100"
    unicode-range="U+000D-FB04"
  />
<missing-glyph horiz-adv-x="740" 
d="M134 0v1288h473v-1288h-473zM131 -9h479v1306h-479v-1306z" />
    <glyph glyph-name=".notdef" horiz-adv-x="740" 
d="M134 0v1288h473v-1288h-473zM131 -9h479v1306h-479v-1306z" />
    <glyph glyph-name="CR" unicode="&#xd;" horiz-adv-x="334" 
 />
    <glyph glyph-name="space" unicode=" " horiz-adv-x="334" 
 />
    <glyph glyph-name="space" unicode="&#xa0;" horiz-adv-x="334" 
 />
    <glyph glyph-name="exclam" unicode="!" horiz-adv-x="434" 
d="M197 388h54l60 1331h-194zM138 0h185v179h-185v-179z" />
    <glyph glyph-name="quotedbl" unicode="&#x22;" horiz-adv-x="694" 
d="M152 1408h67c26 152 25 153 51 307h-168zM475 1408h67c26 152 25 153 51 307h-168z" />
    <glyph glyph-name="numbersign" unicode="#" horiz-adv-x="1020" 
d="M18 0h144l185 660h177l-185 -660h144l185 660h239v125h-204l67 239h187v115h-154l163 582h-145l-163 -582h-176l163 582h-145l-163 -582h-239v-115h207l-67 -239h-190v-125h155zM382 785l67 239h177l-67 -239h-177z" />
    <glyph glyph-name="dollar" unicode="$" horiz-adv-x="948" 
d="M446 -138h88v142c218 12 380 139 380 373c0 170 -142 300 -286 418l-283 225c-88 73 -141 153 -141 234c0 161 114 216 278 216c154 0 259 -138 284 -295c0 -3 1 -6 1 -9l128 40c-1 8 -2 15 -4 23c-44 211 -163 338 -357 362v156h-88v-153c-226 -6 -389 -144 -389 -360
c0 -113 75 -217 182 -304l295 -230c136 -106 235 -218 235 -336c0 -177 -122 -239 -269 -239c-183 6 -270 153 -299 329c-2 10 -3 20 -4 30l-134 -39c34 -221 157 -414 383 -439v-144z" />
    <glyph glyph-name="percent" unicode="%" horiz-adv-x="1257" 
d="M305 0h123l553 1721h-124zM392 1190c0 -133 -24 -236 -109 -236s-109 103 -109 236v228c0 127 24 226 109 226s109 -99 109 -226v-228zM57 1187c0 -180 50 -334 226 -334s226 154 226 334v234c0 182 -54 324 -226 324s-226 -142 -226 -324v-234zM1118 310
c0 -133 -24 -236 -109 -236s-109 103 -109 236v228c0 127 24 226 109 226s109 -99 109 -226v-228zM783 307c0 -180 50 -334 226 -334s226 154 226 334v234c0 182 -54 324 -226 324s-226 -142 -226 -324v-234z" />
    <glyph glyph-name="ampersand" unicode="&#x26;" horiz-adv-x="1116" 
d="M1094 122c-66 0 -139 34 -204 106c131 168 206 382 206 525h-128c0 -159 -60 -311 -149 -429l-321 493c234 209 338 430 338 603c0 191 -125 325 -343 325c-217 0 -353 -154 -353 -375c0 -134 73 -306 206 -526c-178 -144 -278 -370 -278 -546c0 -180 110 -324 366 -324
c143 0 268 64 370 160c74 -86 170 -142 271 -148c6 0 13 -1 19 -1v137zM735 229c-90 -84 -196 -135 -293 -135c-169 0 -234 96 -234 219c0 142 87 318 198 421zM442 927c-110 185 -150 318 -150 437c0 101 47 259 205 259c137 0 195 -87 195 -207c0 -154 -99 -344 -250 -489
z" />
    <glyph glyph-name="quotesingle" unicode="'" horiz-adv-x="373" 
d="M153 1408h67c26 152 24 153 51 307h-169z" />
    <glyph glyph-name="parenleft" unicode="(" horiz-adv-x="535" 
d="M541 68c-284 0 -274 459 -274 835c0 360 10 752 274 752v132c-435 0 -426 -595 -426 -926s-9 -925 426 -925v132z" />
    <glyph glyph-name="parenright" unicode=")" horiz-adv-x="545" 
d="M18 -64c435 0 426 594 426 925s9 926 -426 926v-132c264 0 274 -392 274 -752c0 -376 10 -835 -274 -835v-132z" />
    <glyph glyph-name="asterisk" unicode="*" horiz-adv-x="760" 
d="M147 963l88 -52l149 252l150 -252l89 49l-174 250l264 102l-35 90l-254 -120l20 301h-119l18 -302l-252 119l-36 -89l265 -101z" />
    <glyph glyph-name="plus" unicode="+" horiz-adv-x="649" 
d="M274 384h121v192h192v115h-192v192h-121v-192h-192v-115h192v-192z" />
    <glyph glyph-name="comma" unicode="," horiz-adv-x="389" 
d="M160 -256c141 15 136 206 136 435h-185v-179h128c0 -47 -14 -168 -106 -201z" />
    <glyph glyph-name="hyphen" unicode="-" horiz-adv-x="532" 
d="M117 448h313v115h-313v-115z" />
    <glyph glyph-name="period" unicode="." horiz-adv-x="397" 
d="M115 0h184v179h-184v-179z" />
    <glyph glyph-name="slash" unicode="/" horiz-adv-x="651" 
d="M-29 0h144l553 1721h-145z" />
    <glyph glyph-name="zero" unicode="0" horiz-adv-x="1047" 
d="M783 465c0 -204 -57 -370 -257 -370s-257 166 -257 370v789c0 204 57 369 257 369s257 -165 257 -369v-789zM117 499c0 -289 91 -526 409 -526s409 237 409 526v721c0 291 -99 525 -409 525s-409 -234 -409 -525v-721z" />
    <glyph glyph-name="one" unicode="1" horiz-adv-x="532" 
d="M233 0h152v1721h-103c-62 -103 -180 -166 -241 -188v-144c45 10 133 49 192 89v-1478z" />
    <glyph glyph-name="two" unicode="2" horiz-adv-x="946" 
d="M72 0h785v122h-606l433 671c85 123 194 325 194 480c0 285 -122 472 -382 472c-291 0 -415 -194 -421 -506v-23h152c0 210 35 407 271 407c167 0 228 -149 228 -351c0 -153 -112 -326 -192 -447l-462 -697v-128z" />
    <glyph glyph-name="three" unicode="3" horiz-adv-x="946" 
d="M67 395c0 -214 98 -422 380 -422c295 0 398 206 398 489c0 308 -133 407 -235 448c129 38 235 173 235 406c0 222 -102 429 -380 429c-298 0 -399 -209 -399 -428v-25h143c11 241 101 331 253 331c150 0 231 -76 231 -306c0 -242 -63 -332 -256 -340v-129
c197 -16 256 -172 256 -389c0 -294 -86 -364 -232 -364c-159 0 -246 52 -252 326h-142v-26z" />
    <glyph glyph-name="four" unicode="4" horiz-adv-x="842" 
d="M494 0h152v509h171v113h-171v1101h-233l-397 -1109v-105h478v-509zM175 622l318 974l1 -974h-319z" />
    <glyph glyph-name="five" unicode="5" horiz-adv-x="918" 
d="M109 430c0 -290 106 -457 378 -457c280 0 388 237 388 549c0 298 -99 527 -358 527c-104 0 -185 -40 -246 -105v655h502l14 122h-668v-934h122c65 99 167 140 246 140c158 0 236 -96 236 -406c0 -326 -78 -426 -236 -426c-151 0 -226 61 -226 346z" />
    <glyph glyph-name="six" unicode="6" horiz-adv-x="991" 
d="M121 490c0 -326 109 -517 388 -517c294 0 408 221 408 509c0 280 -111 497 -398 497c-104 0 -185 -16 -246 -45v325c0 294 82 364 222 364c153 0 236 -52 242 -326h142v26c0 214 -95 422 -370 422c-288 0 -388 -206 -388 -489v-766zM273 811c44 29 158 46 246 46
c165 0 246 -90 246 -376c0 -294 -84 -386 -256 -386c-158 0 -236 73 -236 406v310z" />
    <glyph glyph-name="seven" unicode="7" horiz-adv-x="674" 
d="M139 0h158c147 753 187 892 333 1645v76h-646v-136h483z" />
    <glyph glyph-name="eight" unicode="8" horiz-adv-x="1008" 
d="M344 910c-102 -41 -235 -140 -235 -448c0 -283 103 -489 398 -489s398 206 398 489c0 308 -133 407 -235 448c129 38 235 173 235 406c0 240 -111 429 -398 429s-398 -189 -398 -429c0 -233 106 -368 235 -406zM507 847c189 -21 246 -175 246 -388
c0 -294 -86 -364 -246 -364s-246 70 -246 364c0 213 57 367 246 388zM507 977c-185 11 -246 102 -246 340c0 230 81 306 246 306s246 -76 246 -306c0 -238 -61 -329 -246 -340z" />
    <glyph glyph-name="nine" unicode="9" horiz-adv-x="981" 
d="M110 395c0 -214 95 -422 370 -422c288 0 388 206 388 489v766c0 326 -109 517 -388 517c-294 0 -408 -221 -408 -509c0 -280 111 -497 398 -497c104 0 185 16 246 45v-325c0 -294 -82 -364 -222 -364c-153 0 -236 52 -242 326h-142v-26zM716 907
c-44 -29 -158 -46 -246 -46c-165 0 -246 90 -246 376c0 294 84 386 256 386c158 0 236 -73 236 -406v-310z" />
    <glyph glyph-name="colon" unicode=":" horiz-adv-x="426" 
d="M125 813h185v179h-185v-179zM125 275h185v179h-185v-179z" />
    <glyph glyph-name="semicolon" unicode=";" horiz-adv-x="422" 
d="M125 813h184v179h-184v-179zM173 0c141 15 131 194 136 435h-184v-179h128c0 -47 -15 -168 -106 -201z" />
    <glyph glyph-name="less" unicode="&#x3c;" horiz-adv-x="727" 
d="M76 494c143 -102 569 -400 569 -400v167c-202 146 -276 197 -477 342l477 339v165l-569 -398v-215z" />
    <glyph glyph-name="equal" unicode="=" horiz-adv-x="750" 
d="M127 576h505v115h-505v-115zM127 255h505v115h-505v-115z" />
    <glyph glyph-name="greater" unicode="&#x3e;" horiz-adv-x="727" 
d="M102 94l569 400v215c-145 100 -569 400 -569 400v-167c202 -144 275 -197 477 -339l-477 -342v-167z" />
    <glyph glyph-name="question" unicode="?" horiz-adv-x="868" 
d="M300 452h134v284c256 159 395 336 395 583c0 290 -194 427 -390 427c-202 0 -406 -146 -406 -421v-146h134l1 142c1 198 119 303 271 303c129 0 253 -84 253 -307c0 -106 -39 -320 -392 -524v-341zM275 1h184v179h-184v-179z" />
    <glyph glyph-name="at" unicode="@" horiz-adv-x="1434" 
d="M1091 198c-77 -14 -191 -39 -311 -39c-263 0 -556 113 -556 705c0 644 379 682 506 682c287 0 489 -132 489 -665c0 -270 -70 -320 -129 -320c-97 0 -104 100 -104 153v560h-152v-70c-56 49 -123 76 -181 76c-124 0 -232 -136 -232 -441c0 -117 36 -392 230 -392
c93 0 188 39 213 156c31 -92 129 -157 230 -157c135 0 277 118 277 442c0 502 -240 779 -645 779c-354 0 -654 -274 -654 -799c0 -621 297 -828 713 -828c104 0 215 15 331 40zM834 644c-35 -45 -70 -83 -147 -83c-76 0 -115 81 -115 279c0 180 32 334 130 334
c35 0 79 -16 132 -53v-477z" />
    <glyph glyph-name="A" unicode="A" horiz-adv-x="980" 
d="M204 0l88 448h397l86 -448h154l-340 1721h-198c-161 -799 -179 -923 -340 -1721h153zM310 549l179 1014l181 -1014h-360z" />
    <glyph glyph-name="B" unicode="B" horiz-adv-x="1030" 
d="M146 0h400c336 0 394 240 394 513c0 146 -50 351 -221 420c123 56 186 220 186 351c0 216 -82 437 -389 437h-370v-1721zM298 116v749h272c182 0 218 -165 218 -352c0 -212 -39 -397 -218 -397h-272zM298 982v623h198c191 0 246 -147 246 -324c0 -154 -46 -299 -200 -299
h-244z" />
    <glyph glyph-name="C" unicode="C" horiz-adv-x="1074" 
d="M119 499c0 -289 95 -526 437 -526c318 0 404 237 404 526v84h-145v-118c0 -210 -59 -370 -259 -370c-224 0 -285 160 -285 370v789c0 210 61 369 285 369c200 0 259 -159 259 -369v-104h145v70c0 291 -94 525 -404 525c-334 0 -437 -234 -437 -525v-721z" />
    <glyph glyph-name="D" unicode="D" horiz-adv-x="1091" 
d="M298 122v1477h235c224 0 287 -159 287 -357v-768c0 -192 -63 -352 -287 -352h-235zM146 0h387c342 0 439 230 439 508v700c0 285 -105 513 -439 513h-387v-1721z" />
    <glyph glyph-name="E" unicode="E" horiz-adv-x="807" 
d="M146 0h600v122h-448v710h320v115h-320v652h448v122h-600v-1721z" />
    <glyph glyph-name="F" unicode="F" horiz-adv-x="712" 
d="M146 0h152v832h320v115h-320v652h448v122h-600v-1721z" />
    <glyph glyph-name="G" unicode="G" horiz-adv-x="1117" 
d="M119 481c0 -160 23 -508 447 -508c138 0 266 75 312 195l45 -168h67v821h-363v-115h211v-291c0 -151 -48 -320 -270 -320c-239 0 -297 160 -297 320v860c0 178 70 348 302 348c252 0 265 -227 265 -451v-13h152v12c-2 306 -70 574 -415 574c-366 0 -456 -259 -456 -534
v-730z" />
    <glyph glyph-name="H" unicode="H" horiz-adv-x="1126" 
d="M146 0h152v836h530v-836h152v1721h-152v-779h-530v779h-152v-1721z" />
    <glyph glyph-name="I" unicode="I" horiz-adv-x="444" 
d="M145 0h152v1721h-152v-1721z" />
    <glyph glyph-name="J" unicode="J" horiz-adv-x="559" 
d="M12 0h79c299 0 329 128 329 410v1311h-152v-1311c0 -285 -21 -295 -256 -295v-115z" />
    <glyph glyph-name="K" unicode="K" horiz-adv-x="1010" 
d="M146 0h152v607l168 302l368 -909h161l-437 1011l356 710h-157l-459 -905v905h-152v-1721z" />
    <glyph glyph-name="L" unicode="L" horiz-adv-x="783" 
d="M146 0h633v122h-481v1599h-152v-1721z" />
    <glyph glyph-name="M" unicode="M" horiz-adv-x="1330" 
d="M146 0h135v1376l318 -1376h132l318 1377v-1377h135v1721h-187c-128 -650 -196 -836 -332 -1486l-332 1486h-187v-1721z" />
    <glyph glyph-name="N" unicode="N" horiz-adv-x="1083" 
d="M146 0h131v1334l546 -1334h114v1721h-129v-1363l-545 1363h-117v-1721z" />
    <glyph glyph-name="O" unicode="O" horiz-adv-x="1116" 
d="M845 465c0 -204 -63 -370 -287 -370s-287 166 -287 370v789c0 204 63 369 287 369s287 -165 287 -369v-789zM119 499c0 -289 97 -526 439 -526s439 237 439 526v721c0 291 -105 525 -439 525s-439 -234 -439 -525v-721z" />
    <glyph glyph-name="P" unicode="P" horiz-adv-x="1020" 
d="M146 0h152v765h268c328 0 408 248 408 493c0 248 -100 463 -407 463h-421v-1721zM298 887v712h286c159 0 238 -105 238 -344c0 -249 -64 -370 -238 -369z" />
    <glyph glyph-name="Q" unicode="Q" horiz-adv-x="1123" 
d="M119 499c0 -289 97 -526 439 -526c51 0 97 6 138 16c93 -104 189 -184 308 -201v114c-88 12 -154 70 -212 123c155 86 205 266 205 474v721c0 291 -105 525 -439 525s-439 -234 -439 -525v-721zM845 465c0 -204 -63 -370 -287 -370s-287 166 -287 370v789
c0 204 63 369 287 369s287 -165 287 -369v-789z" />
    <glyph glyph-name="R" unicode="R" horiz-adv-x="1069" 
d="M146 0h152v840h289l251 -840h162l-266 859c189 69 240 241 240 417c0 239 -70 445 -369 445h-459v-1721zM298 962v637h306c178 0 218 -147 218 -318c0 -161 -36 -319 -218 -319h-306z" />
    <glyph glyph-name="S" unicode="S" horiz-adv-x="987" 
d="M81 415c36 -237 172 -442 424 -442c231 0 407 130 407 384c0 198 -151 340 -286 488l-253 275c-83 90 -141 177 -141 274c0 155 103 229 249 229c164 0 257 -132 282 -293l2 -14l128 40l-3 16c-45 241 -182 373 -409 373c-229 0 -396 -143 -396 -371
c0 -129 81 -237 182 -344l269 -283c125 -132 231 -257 231 -403c0 -158 -88 -249 -245 -249c-204 0 -286 178 -307 359z" />
    <glyph glyph-name="T" unicode="T" horiz-adv-x="755" 
d="M300 0h152v1599h338v122h-825v-122h335v-1599z" />
    <glyph glyph-name="U" unicode="U" horiz-adv-x="1138" 
d="M132 423c0 -242 92 -450 445 -450c339 0 429 208 429 450v1298h-151v-1333c0 -187 -70 -293 -278 -293c-220 0 -293 104 -293 293v1333h-152v-1298z" />
    <glyph glyph-name="V" unicode="V" horiz-adv-x="971" 
d="M393 0h199l356 1721h-164l-292 -1541l-305 1541h-164z" />
    <glyph glyph-name="W" unicode="W" horiz-adv-x="1436" 
d="M321 0h174l232 1520l215 -1520h175l286 1721h-141l-234 -1472l-203 1472h-193l-222 -1472l-235 1472h-142z" />
    <glyph glyph-name="X" unicode="X" horiz-adv-x="991" 
d="M51 0h157l293 717l298 -717h146l-367 850l367 872h-156l-293 -724l-302 724h-143l367 -856z" />
    <glyph glyph-name="Y" unicode="Y" horiz-adv-x="888" 
d="M374 0h152v534l364 1187h-159c-124 -446 -160 -586 -282 -1032l-282 1032h-169l376 -1187v-534z" />
    <glyph glyph-name="Z" unicode="Z" horiz-adv-x="897" 
d="M68 0h761v122h-605l605 1458v141h-697v-122h541l-605 -1458v-141z" />
    <glyph glyph-name="bracketleft" unicode="[" horiz-adv-x="494" 
d="M150 -64h331v81h-179v1681h179v81h-331v-1843z" />
    <glyph glyph-name="backslash" unicode="\" horiz-adv-x="639" 
d="M541 0h144l-552 1721h-145z" />
    <glyph glyph-name="bracketright" unicode="]" horiz-adv-x="504" 
d="M25 -64h331v1843h-331v-81h179v-1681h-179v-81z" />
    <glyph glyph-name="asciicircum" unicode="^" horiz-adv-x="739" 
d="M220 896l153 540l155 -540h175l-226 563h-207s-159 -393 -227 -563h177z" />
    <glyph glyph-name="underscore" unicode="_" horiz-adv-x="913" 
d="M115 0h696v115h-696v-115z" />
    <glyph glyph-name="grave" unicode="`" horiz-adv-x="451" 
d="M299 1324h56l-123 398h-162z" />
    <glyph glyph-name="a" unicode="a" 
d="M583 0h140s-18 135 -18 276v576c0 165 -50 373 -304 373c-175 0 -288 -127 -304 -336h156v7c12 205 94 228 153 228c73 0 146 -30 147 -381v-10c-472 -194 -479 -339 -479 -494c0 -167 121 -266 237 -266c78 0 185 53 253 172zM553 244c-44 -86 -131 -146 -207 -146
c-56 0 -121 44 -121 169c0 164 121 256 328 399v-422z" />
    <glyph glyph-name="b" unicode="b" horiz-adv-x="873" 
d="M120 0h150v113c70 -109 167 -140 242 -140c111 0 253 55 253 573v95c0 537 -142 584 -264 584c-82 0 -167 -46 -231 -140v636h-150v-1721zM615 545c0 -449 -73 -461 -149 -461c-61 0 -137 50 -196 121v790c62 69 130 119 201 119c73 0 144 -21 144 -474v-95z" />
    <glyph glyph-name="c" unicode="c" horiz-adv-x="834" 
d="M108 568c0 -301 0 -595 327 -595c247 0 295 191 305 423v7h-151v-10c-10 -229 -47 -319 -154 -319c-148 0 -177 134 -177 494v62c0 354 20 494 177 494c111 0 146 -90 154 -309v-9h150c0 4 -1 7 -1 11c-12 216 -64 408 -303 408c-327 0 -327 -316 -327 -595v-62z" />
    <glyph glyph-name="d" unicode="d" horiz-adv-x="892" 
d="M596 0h150v1721h-150v-636c-64 94 -149 140 -231 140c-122 0 -264 -47 -264 -584v-95c0 -518 142 -573 253 -573c75 0 172 31 242 140v-113zM596 205c-59 -71 -135 -121 -196 -121c-76 0 -149 12 -149 461v95c0 453 71 474 144 474c71 0 139 -50 201 -119v-790z" />
    <glyph glyph-name="e" unicode="e" horiz-adv-x="839" 
d="M109 552c-4 -452 87 -579 332 -579c224 0 279 182 297 388v6h-140v-8c-2 -229 -82 -285 -159 -285c-112 0 -179 48 -179 371v183h480c2 48 2 74 2 123c0 323 -85 474 -302 474c-190 0 -327 -79 -330 -506zM261 702v3c0 274 1 419 186 419c166 0 143 -237 146 -420v-2
h-332z" />
    <glyph glyph-name="f" unicode="f" horiz-adv-x="577" 
d="M187 0h150v1114h192v84h-192v180c0 71 -5 158 115 158c13 0 62 -3 74 -6v109c-37 9 -81 13 -122 13c-233 0 -217 -227 -217 -325v-129h-167v-84h167v-1114z" />
    <glyph glyph-name="g" unicode="g" horiz-adv-x="929" 
d="M905 1221c-86 -21 -144 -117 -182 -183c-71 109 -144 186 -283 186c-253 0 -344 -245 -344 -431c0 -134 40 -284 140 -375c-29 -40 -143 -188 -143 -268c0 -42 161 -83 172 -85c-108 -55 -236 -159 -236 -305c0 -158 312 -153 404 -153c121 0 408 21 408 263
c0 155 -138 221 -283 248c-287 53 -327 53 -327 92c0 54 46 128 69 172c29 -12 89 -24 144 -24c251 0 348 208 348 442c0 54 -15 117 -38 181c39 44 94 85 147 95l20 148zM541 12c112 -21 156 -67 156 -163c0 -137 -194 -135 -262 -135c-96 0 -248 -5 -248 95
c0 76 80 199 140 243zM445 468c-176 0 -196 207 -196 308c0 93 20 327 196 327c175 0 195 -234 195 -327c0 -100 -21 -308 -195 -308z" />
    <glyph glyph-name="h" unicode="h" horiz-adv-x="878" 
d="M120 0h151v992c60 57 139 96 204 96c54 0 121 -40 121 -154v-934h152v942c0 192 -122 283 -234 283c-87 0 -180 -41 -244 -140v636h-150v-1721z" />
    <glyph glyph-name="i" unicode="i" horiz-adv-x="405" 
d="M132 0h150v1198h-150v-1198zM132 1472h150v179h-150v-179z" />
    <glyph glyph-name="j" unicode="j" horiz-adv-x="420" 
d="M-68 -312c31 -6 68 -8 81 -8c163 0 261 78 261 274v1244h-150v-1216c0 -62 0 -188 -136 -188c-10 0 -33 1 -56 2v-108zM124 1473h150v179h-150v-179z" />
    <glyph glyph-name="k" unicode="k" horiz-adv-x="870" 
d="M120 0h150v470l149 183l235 -653h157l-285 744l287 454h-169l-374 -568v1091h-150v-1721z" />
    <glyph glyph-name="l" unicode="l" horiz-adv-x="442" 
d="M150 0h150v1721h-150v-1721z" />
    <glyph glyph-name="m" unicode="m" horiz-adv-x="1381" 
d="M120 0h150v995c65 73 152 119 220 119c73 0 134 -38 134 -143v-971h150v1017c60 60 137 97 197 97c69 0 130 -39 130 -144v-970h150v1001c0 131 -117 224 -236 224c-71 0 -180 -41 -264 -136c-34 80 -126 136 -207 136c-92 0 -191 -41 -273 -138v111h-151v-1198z" />
    <glyph glyph-name="n" unicode="n" horiz-adv-x="878" 
d="M120 0h150v993c60 75 137 121 199 121c69 0 127 -43 127 -170v-944h152v941c0 192 -117 284 -224 284c-91 0 -187 -42 -254 -140v113h-150v-1198z" />
    <glyph glyph-name="o" unicode="o" horiz-adv-x="850" 
d="M258 630c0 354 19 494 167 494c146 0 167 -140 167 -494v-62c0 -360 -27 -494 -167 -494s-167 134 -167 494v62zM108 568c0 -301 0 -595 317 -595s317 294 317 595v62c0 279 0 595 -317 595s-317 -316 -317 -595v-62z" />
    <glyph glyph-name="p" unicode="p" horiz-adv-x="873" 
d="M120 -385h150v498c64 -94 149 -140 231 -140c122 0 264 47 264 584v95c0 518 -142 573 -253 573c-75 0 -172 -31 -242 -140v113h-150v-1583zM615 558c0 -453 -71 -474 -144 -474c-71 0 -139 50 -201 119v790c59 71 135 121 196 121c76 0 149 -12 149 -461v-95z" />
    <glyph glyph-name="q" unicode="q" horiz-adv-x="893" 
d="M603 -385h150v1583h-150v-113c-70 109 -167 140 -242 140c-111 0 -253 -55 -253 -573v-95c0 -537 142 -584 264 -584c82 0 167 46 231 140v-498zM603 203c-62 -69 -130 -119 -201 -119c-73 0 -144 21 -144 474v95c0 449 73 461 149 461c61 0 137 -50 196 -121v-790z" />
    <glyph glyph-name="r" unicode="r" horiz-adv-x="569" 
d="M120 0h150v894c0 141 114 176 229 176c12 0 26 -4 26 -4v151h-3c-90 -2 -212 -53 -252 -188v169h-150v-1198z" />
    <glyph glyph-name="s" unicode="s" horiz-adv-x="760" 
d="M54 300c43 -174 157 -327 344 -327c177 0 305 107 305 289c-3 171 -124 277 -240 378l-95 82c-84 72 -150 143 -150 230c0 94 55 163 146 163c111 0 165 -138 181 -237l133 41c-38 155 -128 304 -307 304s-301 -100 -301 -284c0 -125 93 -215 200 -309l87 -76
c100 -88 205 -199 205 -295c0 -104 -49 -178 -158 -178c-121 0 -201 154 -235 258z" />
    <glyph glyph-name="t" unicode="t" horiz-adv-x="594" 
d="M179 283c0 -153 17 -301 210 -301c38 0 79 4 130 17v103c-29 -6 -59 -8 -88 -8c-98 0 -102 75 -102 196v824h192v84h-192v425h-150v-425h-163v-84h163v-831z" />
    <glyph glyph-name="u" unicode="u" horiz-adv-x="878" 
d="M130 257c0 -192 117 -284 224 -284c91 0 187 42 254 140v-113h150v1198h-150v-993c-60 -75 -137 -121 -199 -121c-69 0 -127 43 -127 170v944h-152v-941z" />
    <glyph glyph-name="v" unicode="v" horiz-adv-x="793" 
d="M295 0h194l241 1198h-143l-194 -1106l-202 1106h-146z" />
    <glyph glyph-name="w" unicode="w" horiz-adv-x="1204" 
d="M255 0h169l176 1028l183 -1028h155l196 1198h-129l-140 -1042l-188 1042h-160l-175 -1042l-154 1042h-131z" />
    <glyph glyph-name="x" unicode="x" horiz-adv-x="848" 
d="M72 0h147l206 534l206 -534h146l-258 626l257 572h-155l-196 -499l-196 499h-155l256 -572z" />
    <glyph glyph-name="y" unicode="y" horiz-adv-x="809" 
d="M100 -299h3c206 6 331 54 373 216l300 1281h-162l-194 -1031l-198 1030h-162l260 -1101c8 -50 11 -108 11 -142c0 -76 -68 -119 -231 -130v-123z" />
    <glyph glyph-name="z" unicode="z" horiz-adv-x="731" 
d="M68 0h607v115h-455l461 940v143h-549v-114h408l-472 -940v-144z" />
    <glyph glyph-name="braceleft" unicode="{" horiz-adv-x="520" 
d="M511 56c-209 0 -209 174 -209 494c0 134 -20 270 -163 312c143 42 163 178 163 312c0 320 0 494 209 494v113c-343 0 -345 -309 -345 -666c0 -88 -15 -159 -131 -159v-188c116 0 131 -71 131 -159c0 -357 2 -666 345 -666v113z" />
    <glyph glyph-name="bar" unicode="|" horiz-adv-x="416" 
d="M150 -128h118v1874h-118v-1874z" />
    <glyph glyph-name="braceright" unicode="}" horiz-adv-x="530" 
d="M25 -57c343 0 345 309 345 666c0 88 15 159 131 159v188c-116 0 -131 71 -131 159c0 357 -2 666 -345 666v-113c209 0 209 -174 209 -494c0 -134 20 -270 163 -312c-143 -42 -163 -178 -163 -312c0 -320 0 -494 -209 -494v-113z" />
    <glyph glyph-name="asciitilde" unicode="~" horiz-adv-x="815" 
d="M213 959c7 53 26 66 62 66c80 0 176 -78 283 -78c174 0 171 180 174 190h-116c-7 -53 -30 -67 -66 -67c-77 0 -193 76 -275 76c-161 0 -175 -143 -177 -187h115z" />
    <glyph glyph-name="exclamdown" unicode="&#xa1;" horiz-adv-x="424" 
d="M164 0h121v1075h-121v-1075zM100 1280h185v179h-185v-179z" />
    <glyph glyph-name="cent" unicode="&#xa2;" horiz-adv-x="760" 
d="M370 87h65v153c218 16 262 197 272 417c0 4 1 8 1 12h-151c0 -5 -1 -11 -1 -17c-6 -124 -12 -313 -156 -313c-152 0 -174 137 -174 455v62c4 317 11 453 175 453c148 0 152 -193 156 -303v-14h150c0 5 -1 9 -1 14c-12 205 -61 387 -272 403v134h-65v-133
c-293 -20 -293 -305 -293 -554v-62c0 -271 0 -536 294 -554v-153z" />
    <glyph glyph-name="sterling" unicode="&#xa3;" horiz-adv-x="836" 
d="M55 0h728v115h-448v653h289v115h-289v281c0 252 1 444 167 453c162 9 162 -136 162 -274h120c0 91 8 402 -276 402c-311 0 -325 -385 -325 -541v-327h-128v-109h128v-653l-128 -50v-65z" />
    <glyph glyph-name="currency" unicode="&#xa4;" horiz-adv-x="1028" 
d="M168 189l54 -38l77 124c59 -35 131 -56 217 -56c93 0 170 25 231 65l84 -133l54 38l-86 136c84 80 127 195 127 310c0 112 -41 226 -123 306l82 129l-54 38l-79 -126c-62 43 -141 69 -236 69c-88 0 -162 -22 -222 -59l-72 116l-54 -38l73 -117
c-90 -80 -135 -200 -135 -318c0 -121 47 -242 140 -322zM516 311c-204 4 -305 164 -305 324s101 319 305 324c203 -5 305 -164 305 -324s-102 -320 -305 -324z" />
    <glyph glyph-name="yen" unicode="&#xa5;" horiz-adv-x="909" 
d="M386 0h152v226h205v91h-205v206h205v89h-181l340 1109h-159c-124 -446 -160 -586 -282 -1032l-282 1032h-169l351 -1109h-187v-89h212v-206h-212v-91h212v-226z" />
    <glyph glyph-name="brokenbar" unicode="&#xa6;" horiz-adv-x="403" 
d="M137 -14h132v551h-132v-551zM137 889h132v552h-132v-552z" />
    <glyph glyph-name="section" unicode="&#xa7;" horiz-adv-x="834" 
d="M78 300c43 -174 157 -327 344 -327c177 0 305 107 305 289c-2 102 -45 180 -104 248c86 46 140 133 140 251c-3 160 -124 277 -240 378l-95 82c-84 72 -164 143 -164 230c0 94 55 163 146 163c111 0 165 -138 181 -237l133 41c-38 155 -128 304 -307 304
s-301 -100 -301 -284c0 -93 59 -167 133 -237c-104 -39 -169 -128 -169 -262c0 -125 107 -215 214 -309l87 -76c100 -88 205 -199 205 -295c0 -104 -49 -178 -158 -178c-121 0 -201 154 -235 258zM392 722c-84 73 -164 142 -164 230c0 84 44 149 120 161l69 -60
c100 -87 205 -200 205 -295c0 -77 -26 -137 -84 -163z" />
    <glyph glyph-name="dieresis" unicode="&#xa8;" horiz-adv-x="795" 
d="M113 1386h184v179h-184v-179zM497 1386h184v179h-184v-179z" />
    <glyph glyph-name="copyright" unicode="&#xa9;" horiz-adv-x="1378" 
d="M830 505c-3 -111 -22 -211 -129 -211c-135 0 -146 101 -146 373s11 373 146 373c107 0 126 -100 129 -211h87c0 2 9 283 -215 283c-237 0 -240 -234 -240 -445s3 -445 240 -445c215 0 215 281 215 283h-87zM696 -2c418 0 630 329 630 659s-212 659 -630 659
s-630 -329 -630 -659s212 -659 630 -659zM696 67c-359 0 -540 294 -540 590s181 590 540 590s540 -294 540 -590s-181 -590 -540 -590z" />
    <glyph glyph-name="ordfeminine" unicode="&#xaa;" horiz-adv-x="745" 
d="M518 796h117s-15 107 -15 220v419c0 138 -42 311 -254 311c-145 0 -240 -106 -253 -280h130c9 176 78 196 128 196c61 0 122 -21 122 -286c-393 -153 -399 -268 -399 -391c0 -133 101 -212 197 -212c65 0 154 44 211 143zM493 989c-37 -66 -109 -112 -172 -112
c-47 0 -101 34 -101 131c0 129 101 201 273 312v-331z" />
    <glyph glyph-name="guillemotleft" unicode="&#xab;" horiz-adv-x="874" 
d="M466 124v200l-276 317l276 315v200l-388 -452v-128zM778 124v200l-276 317l276 315v200l-388 -452v-128z" />
    <glyph glyph-name="logicalnot" unicode="&#xac;" horiz-adv-x="657" 
d="M100 448h384v-192h56v307h-440v-115z" />
    <glyph glyph-name="uni00AD" unicode="&#xad;" horiz-adv-x="659" 
d="M117 448h441v115h-441v-115z" />
    <glyph glyph-name="registered" unicode="&#xae;" horiz-adv-x="1378" 
d="M504 241h72v405h142l133 -402h86c-140 385 -154 413 -154 413c65 13 148 86 148 186c0 118 -42 240 -236 240h-191v-842zM576 695v337h106c116 0 169 -59 169 -189c0 -152 -98 -148 -208 -148h-67zM696 -2c418 0 630 329 630 659s-212 659 -630 659s-630 -329 -630 -659
s212 -659 630 -659zM696 67c-359 0 -540 294 -540 590s181 590 540 590s540 -294 540 -590s-181 -590 -540 -590z" />
    <glyph glyph-name="macron" unicode="&#xaf;" horiz-adv-x="702" 
d="M131 1383h441v115h-441v-115z" />
    <glyph glyph-name="degree" unicode="&#xb0;" horiz-adv-x="637" 
d="M176 1504c0 66 34 147 141 147s141 -81 141 -147s-34 -147 -141 -147s-141 81 -141 147zM317 1722c-153 0 -219 -112 -219 -218s66 -218 219 -218s219 112 219 218s-66 218 -219 218z" />
    <glyph glyph-name="plusminus" unicode="&#xb1;" horiz-adv-x="702" 
d="M106 0h504v115h-504v-115zM298 384h120v192h192v115h-192v192h-120v-192h-192v-115h192v-192z" />
    <glyph glyph-name="twosuperior" unicode="&#xb2;" horiz-adv-x="764" 
d="M100 586h550v111h-381l265 409c54 84 130 220 130 318c0 192 -84 319 -267 319c-207 0 -295 -143 -295 -372h142c0 136 19 264 154 264c90 0 124 -90 124 -212c0 -83 -71 -204 -117 -278l-305 -459v-100z" />
    <glyph glyph-name="threesuperior" unicode="&#xb3;" horiz-adv-x="770" 
d="M104 955c0 -226 84 -368 278 -368c187 0 273 135 273 326c0 90 -68 221 -158 275c91 43 158 149 158 248c0 165 -83 308 -263 308c-201 0 -288 -142 -288 -370h130c0 136 21 264 159 264c97 0 132 -90 132 -213c0 -76 -51 -164 -161 -195v-84c98 -20 161 -155 161 -232
c0 -142 -38 -221 -142 -221c-129 0 -149 126 -149 262h-130z" />
    <glyph glyph-name="acute" unicode="&#xb4;" horiz-adv-x="444" 
d="M96 1324h56l229 398h-162z" />
    <glyph glyph-name="mu" unicode="&#xb5;" horiz-adv-x="901" 
d="M145 -232h132l7 255c36 -34 77 -50 115 -50c79 0 166 42 224 140v-113h150v1198h-150v-993c-60 -75 -137 -121 -199 -121c-69 0 -127 43 -127 170v944h-152v-1430z" />
    <glyph glyph-name="paragraph" unicode="&#xb6;" horiz-adv-x="969" 
d="M389 0h125v876h211v-876h106v1459h-437c-252 0 -371 -114 -371 -294c0 -187 143 -289 366 -289v-876z" />
    <glyph glyph-name="periodcentered" unicode="&#xb7;" horiz-adv-x="446" 
d="M131 704h185v179h-185v-179z" />
    <glyph glyph-name="cedilla" unicode="&#xb8;" horiz-adv-x="449" 
d="M111 -394c159 0 250 49 250 117c0 48 -45 105 -142 162v115h-64v-134c59 -39 103 -92 103 -134c0 -39 -40 -67 -147 -67v-59z" />
    <glyph glyph-name="onesuperior" unicode="&#xb9;" horiz-adv-x="522" 
d="M243 588h136v1133h-87c-62 -103 -180 -166 -241 -188v-125c45 10 133 48 192 89v-909z" />
    <glyph glyph-name="ordmasculine" unicode="&#xba;" horiz-adv-x="715" 
d="M228 1283c0 276 15 385 130 385c114 0 131 -109 131 -385v-49c0 -281 -21 -385 -131 -385c-109 0 -130 104 -130 385v49zM111 1234c0 -235 0 -464 247 -464c248 0 248 229 248 464v49c0 217 0 464 -248 464c-247 0 -247 -247 -247 -464v-49z" />
    <glyph glyph-name="guillemotright" unicode="&#xbb;" horiz-adv-x="872" 
d="M111 124l388 452v128l-388 452v-200l276 -315l-276 -317v-200zM423 124l388 452v128l-388 452v-200l276 -315l-276 -317v-200z" />
    <glyph glyph-name="onequarter" unicode="&#xbc;" horiz-adv-x="1499" 
d="M883 276h375v-277h136v277h134v102h-134v754h-210l-301 -761v-95zM1028 378l229 638l1 -638h-230zM348 0h144l553 1721h-145zM192 588h136v1133h-87c-62 -103 -180 -166 -241 -188v-125c45 10 133 48 192 89v-909z" />
    <glyph glyph-name="onehalf" unicode="&#xbd;" horiz-adv-x="1716" 
d="M192 588h136v1133h-87c-62 -103 -180 -166 -241 -188v-125c45 10 133 48 192 89v-909zM468 0h144l553 1721h-145zM1126 -1h550v111h-381l265 409c54 84 130 220 130 318c0 192 -84 319 -267 319c-207 0 -295 -143 -295 -372h142c0 136 19 264 154 264
c90 0 124 -90 124 -212c0 -83 -71 -204 -117 -278l-305 -459v-100z" />
    <glyph glyph-name="threequarters" unicode="&#xbe;" horiz-adv-x="1890" 
d="M59 955c0 -226 84 -368 278 -368c187 0 273 135 273 326c0 90 -68 221 -158 275c91 43 158 149 158 248c0 165 -83 308 -263 308c-201 0 -288 -142 -288 -370h130c0 136 21 264 159 264c97 0 132 -90 132 -213c0 -76 -51 -164 -161 -195v-84c98 -20 161 -155 161 -232
c0 -142 -38 -221 -142 -221c-129 0 -149 126 -149 262h-130zM645 0h144l553 1721h-145zM1273 276h375v-277h136v277h134v102h-134v754h-210l-301 -761v-95zM1418 378l229 638l1 -638h-230z" />
    <glyph glyph-name="questiondown" unicode="&#xbf;" horiz-adv-x="811" 
d="M541 1268h-134v-284c-256 -159 -395 -336 -395 -583c0 -290 194 -427 390 -427c202 0 406 146 406 421v146h-134l-1 -142c-1 -198 -119 -303 -271 -303c-129 0 -253 84 -253 307c0 106 39 320 392 524v341zM566 1719h-184v-179h184v179z" />
    <glyph glyph-name="Agrave" unicode="&#xc0;" horiz-adv-x="981" 
d="M458 1848h56l-123 398h-162zM202 0l88 448h397l86 -448h154l-340 1721h-198c-161 -799 -179 -923 -340 -1721h153zM308 549l179 1014l181 -1014h-360z" />
    <glyph glyph-name="Aacute" unicode="&#xc1;" horiz-adv-x="981" 
d="M432 1848h56l229 398h-162zM202 0l88 448h397l86 -448h154l-340 1721h-198c-161 -799 -179 -923 -340 -1721h153zM308 549l179 1014l181 -1014h-360z" />
    <glyph glyph-name="Acircumflex" unicode="&#xc2;" horiz-adv-x="981" 
d="M226 1930h113l149 299l150 -299h110l-153 307h-213zM202 0l88 448h397l86 -448h154l-340 1721h-198c-161 -799 -179 -923 -340 -1721h153zM308 549l179 1014l181 -1014h-360z" />
    <glyph glyph-name="Atilde" unicode="&#xc3;" horiz-adv-x="981" 
d="M319 1899c7 53 26 66 62 66c53 0 122 -78 193 -78c184 0 181 180 184 190h-116c-7 -53 -30 -67 -66 -67c-50 0 -130 76 -185 76c-170 0 -185 -143 -187 -187h115zM202 0l88 448h397l86 -448h154l-340 1721h-198c-161 -799 -179 -923 -340 -1721h153zM308 549l179 1014
l181 -1014h-360z" />
    <glyph glyph-name="Adieresis" unicode="&#xc4;" horiz-adv-x="981" 
d="M202 1908h184v179h-184v-179zM586 1908h184v179h-184v-179zM202 0l88 448h397l86 -448h154l-340 1721h-198c-161 -799 -179 -923 -340 -1721h153zM308 549l179 1014l181 -1014h-360z" />
    <glyph glyph-name="Aring" unicode="&#xc5;" horiz-adv-x="981" 
d="M347 2027c0 66 34 147 141 147s141 -81 141 -147s-34 -147 -141 -147s-141 81 -141 147zM488 2245c-153 0 -219 -112 -219 -218s66 -218 219 -218s219 112 219 218s-66 218 -219 218zM202 0l88 448h397l86 -448h154l-340 1721h-198c-161 -799 -179 -923 -340 -1721h153z
M308 549l179 1014l181 -1014h-360z" />
    <glyph glyph-name="AE" unicode="&#xc6;" horiz-adv-x="1380" 
d="M12 0h152l165 448h391v-448h600v122h-448v710h320v115h-320v652h448v122h-672zM365 549l354 1014v-1014h-354z" />
    <glyph glyph-name="Ccedilla" unicode="&#xc7;" horiz-adv-x="1073" 
d="M476 -394c159 0 250 49 250 117c0 48 -45 105 -142 162v115h-64v-134c59 -39 103 -92 103 -134c0 -39 -40 -67 -147 -67v-59zM119 499c0 -289 95 -526 437 -526c318 0 404 237 404 526v84h-145v-118c0 -210 -59 -370 -259 -370c-224 0 -285 160 -285 370v789
c0 210 61 369 285 369c200 0 259 -159 259 -369v-104h145v70c0 291 -94 525 -404 525c-334 0 -437 -234 -437 -525v-721z" />
    <glyph glyph-name="Egrave" unicode="&#xc8;" horiz-adv-x="808" 
d="M411 1848h56l-123 398h-162zM146 0h600v122h-448v710h320v115h-320v652h448v122h-600v-1721z" />
    <glyph glyph-name="Eacute" unicode="&#xc9;" horiz-adv-x="808" 
d="M385 1848h56l229 398h-162zM146 0h600v122h-448v710h320v115h-320v652h448v122h-600v-1721z" />
    <glyph glyph-name="Ecircumflex" unicode="&#xca;" horiz-adv-x="808" 
d="M179 1930h113l149 299l150 -299h110l-153 307h-213zM146 0h600v122h-448v710h320v115h-320v652h448v122h-600v-1721z" />
    <glyph glyph-name="Edieresis" unicode="&#xcb;" horiz-adv-x="808" 
d="M155 1908h184v179h-184v-179zM539 1908h184v179h-184v-179zM146 0h600v122h-448v710h320v115h-320v652h448v122h-600v-1721z" />
    <glyph glyph-name="Igrave" unicode="&#xcc;" horiz-adv-x="444" 
d="M192 1848h56l-123 398h-162zM145 0h152v1721h-152v-1721z" />
    <glyph glyph-name="Iacute" unicode="&#xcd;" horiz-adv-x="444" 
d="M166 1848h56l229 398h-162zM145 0h152v1721h-152v-1721z" />
    <glyph glyph-name="Icircumflex" unicode="&#xce;" horiz-adv-x="444" 
d="M-40 1930h113l149 299l150 -299h110l-153 307h-213zM145 0h152v1721h-152v-1721z" />
    <glyph glyph-name="Idieresis" unicode="&#xcf;" horiz-adv-x="444" 
d="M-64 1908h184v179h-184v-179zM320 1908h184v179h-184v-179zM145 0h152v1721h-152v-1721z" />
    <glyph glyph-name="Eth" unicode="&#xd0;" horiz-adv-x="1128" 
d="M183 0h387c342 0 439 230 439 508v700c0 285 -105 513 -439 513h-387v-797h-140v-115h140v-809zM335 122v687h200v115h-200v675h235c224 0 287 -159 287 -357v-768c0 -192 -63 -352 -287 -352h-235z" />
    <glyph glyph-name="Ntilde" unicode="&#xd1;" horiz-adv-x="1083" 
d="M389 1899c7 53 26 66 62 66c53 0 122 -78 193 -78c184 0 181 180 184 190h-116c-7 -53 -30 -67 -66 -67c-50 0 -130 76 -185 76c-170 0 -185 -143 -187 -187h115zM146 0h131v1334l546 -1334h114v1721h-129v-1363l-545 1363h-117v-1721z" />
    <glyph glyph-name="Ograve" unicode="&#xd2;" horiz-adv-x="1116" 
d="M529 1848h56l-123 398h-162zM845 465c0 -204 -63 -370 -287 -370s-287 166 -287 370v789c0 204 63 369 287 369s287 -165 287 -369v-789zM119 499c0 -289 97 -526 439 -526s439 237 439 526v721c0 291 -105 525 -439 525s-439 -234 -439 -525v-721z" />
    <glyph glyph-name="Oacute" unicode="&#xd3;" horiz-adv-x="1116" 
d="M503 1848h56l229 398h-162zM845 465c0 -204 -63 -370 -287 -370s-287 166 -287 370v789c0 204 63 369 287 369s287 -165 287 -369v-789zM119 499c0 -289 97 -526 439 -526s439 237 439 526v721c0 291 -105 525 -439 525s-439 -234 -439 -525v-721z" />
    <glyph glyph-name="Ocircumflex" unicode="&#xd4;" horiz-adv-x="1116" 
d="M297 1930h113l149 299l150 -299h110l-153 307h-213zM845 465c0 -204 -63 -370 -287 -370s-287 166 -287 370v789c0 204 63 369 287 369s287 -165 287 -369v-789zM119 499c0 -289 97 -526 439 -526s439 237 439 526v721c0 291 -105 525 -439 525s-439 -234 -439 -525v-721
z" />
    <glyph glyph-name="Otilde" unicode="&#xd5;" horiz-adv-x="1116" 
d="M390 1899c7 53 26 66 62 66c53 0 122 -78 193 -78c184 0 181 180 184 190h-116c-7 -53 -30 -67 -66 -67c-50 0 -130 76 -185 76c-170 0 -185 -143 -187 -187h115zM845 465c0 -204 -63 -370 -287 -370s-287 166 -287 370v789c0 204 63 369 287 369s287 -165 287 -369v-789
zM119 499c0 -289 97 -526 439 -526s439 237 439 526v721c0 291 -105 525 -439 525s-439 -234 -439 -525v-721z" />
    <glyph glyph-name="Odieresis" unicode="&#xd6;" horiz-adv-x="1116" 
d="M273 1908h184v179h-184v-179zM657 1908h184v179h-184v-179zM845 465c0 -204 -63 -370 -287 -370s-287 166 -287 370v789c0 204 63 369 287 369s287 -165 287 -369v-789zM119 499c0 -289 97 -526 439 -526s439 237 439 526v721c0 291 -105 525 -439 525
s-439 -234 -439 -525v-721z" />
    <glyph glyph-name="multiply" unicode="&#xd7;" horiz-adv-x="674" 
d="M51 410l76 -76l192 192l192 -192l76 76c-25 24 -192 192 -192 192l192 192l-76 75l-192 -192l-192 192l-76 -75l192 -192z" />
    <glyph glyph-name="Oslash" unicode="&#xd8;" horiz-adv-x="1116" 
d="M201 -132l64 -20l57 178c61 -33 138 -53 236 -53c342 0 439 237 439 526v721c0 180 -41 339 -151 433l63 197l-65 20l-57 -177c-60 33 -136 52 -229 52c-334 0 -439 -234 -439 -525v-721c0 -179 37 -338 146 -433zM845 465c0 -204 -63 -370 -287 -370s-287 166 -287 370
v789c0 204 63 369 287 369s287 -165 287 -369v-789z" />
    <glyph glyph-name="Ugrave" unicode="&#xd9;" horiz-adv-x="1145" 
d="M549 1848h56l-123 398h-162zM135 423c0 -242 92 -450 445 -450c339 0 429 208 429 450v1298h-151v-1333c0 -187 -70 -293 -278 -293c-220 0 -293 104 -293 293v1333h-152v-1298z" />
    <glyph glyph-name="Uacute" unicode="&#xda;" horiz-adv-x="1145" 
d="M523 1848h56l229 398h-162zM135 423c0 -242 92 -450 445 -450c339 0 429 208 429 450v1298h-151v-1333c0 -187 -70 -293 -278 -293c-220 0 -293 104 -293 293v1333h-152v-1298z" />
    <glyph glyph-name="Ucircumflex" unicode="&#xdb;" horiz-adv-x="1145" 
d="M317 1930h113l149 299l150 -299h110l-153 307h-213zM135 423c0 -242 92 -450 445 -450c339 0 429 208 429 450v1298h-151v-1333c0 -187 -70 -293 -278 -293c-220 0 -293 104 -293 293v1333h-152v-1298z" />
    <glyph glyph-name="Udieresis" unicode="&#xdc;" horiz-adv-x="1145" 
d="M293 1908h184v179h-184v-179zM677 1908h184v179h-184v-179zM135 423c0 -242 92 -450 445 -450c339 0 429 208 429 450v1298h-151v-1333c0 -187 -70 -293 -278 -293c-220 0 -293 104 -293 293v1333h-152v-1298z" />
    <glyph glyph-name="Yacute" unicode="&#xdd;" horiz-adv-x="888" 
d="M397 1848h56l229 398h-162zM374 0h152v534l364 1187h-159c-124 -446 -160 -586 -282 -1032l-282 1032h-169l376 -1187v-534z" />
    <glyph glyph-name="Thorn" unicode="&#xde;" horiz-adv-x="1058" 
d="M146 0h152v506h268c328 0 408 248 408 493c0 248 -100 463 -407 463h-269v259h-152v-1721zM298 628v712h286c159 0 238 -105 238 -344c0 -250 -64 -370 -238 -369z" />
    <glyph glyph-name="germandbls" unicode="&#xdf;" horiz-adv-x="1053" 
d="M137 0h152v1335c0 202 106 303 210 303c103 0 204 -105 204 -313c0 -164 -50 -319 -220 -319h-107v-117h105c270 0 328 -204 328 -436c0 -182 -57 -364 -425 -364v-116c464 0 577 237 577 480c0 176 -52 456 -311 514c144 58 216 226 216 361c0 278 -179 418 -360 418
c-184 0 -369 -136 -369 -408v-1338z" />
    <glyph glyph-name="agrave" unicode="&#xe0;" 
d="M374 1324h56l-123 398h-162zM583 0h140s-18 135 -18 276v576c0 165 -50 373 -304 373c-175 0 -288 -127 -304 -336h156v7c12 205 94 228 153 228c73 0 146 -30 147 -381v-10c-472 -194 -479 -339 -479 -494c0 -167 121 -266 237 -266c78 0 185 53 253 172zM553 244
c-44 -86 -131 -146 -207 -146c-56 0 -121 44 -121 169c0 164 121 256 328 399v-422z" />
    <glyph glyph-name="aacute" unicode="&#xe1;" 
d="M348 1324h56l229 398h-162zM583 0h140s-18 135 -18 276v576c0 165 -50 373 -304 373c-175 0 -288 -127 -304 -336h156v7c12 205 94 228 153 228c73 0 146 -30 147 -381v-10c-472 -194 -479 -339 -479 -494c0 -167 121 -266 237 -266c78 0 185 53 253 172zM553 244
c-44 -86 -131 -146 -207 -146c-56 0 -121 44 -121 169c0 164 121 256 328 399v-422z" />
    <glyph glyph-name="acircumflex" unicode="&#xe2;" 
d="M142 1406h113l149 299l150 -299h110l-153 307h-213zM583 0h140s-18 135 -18 276v576c0 165 -50 373 -304 373c-175 0 -288 -127 -304 -336h156v7c12 205 94 228 153 228c73 0 146 -30 147 -381v-10c-472 -194 -479 -339 -479 -494c0 -167 121 -266 237 -266
c78 0 185 53 253 172zM553 244c-44 -86 -131 -146 -207 -146c-56 0 -121 44 -121 169c0 164 121 256 328 399v-422z" />
    <glyph glyph-name="atilde" unicode="&#xe3;" 
d="M235 1375c7 53 26 66 62 66c53 0 122 -78 193 -78c184 0 181 180 184 190h-116c-7 -53 -30 -67 -66 -67c-50 0 -130 76 -185 76c-170 0 -185 -143 -187 -187h115zM583 0h140s-18 135 -18 276v576c0 165 -50 373 -304 373c-175 0 -288 -127 -304 -336h156v7
c12 205 94 228 153 228c73 0 146 -30 147 -381v-10c-472 -194 -479 -339 -479 -494c0 -167 121 -266 237 -266c78 0 185 53 253 172zM553 244c-44 -86 -131 -146 -207 -146c-56 0 -121 44 -121 169c0 164 121 256 328 399v-422z" />
    <glyph glyph-name="adieresis" unicode="&#xe4;" 
d="M118 1384h184v179h-184v-179zM502 1384h184v179h-184v-179zM583 0h140s-18 135 -18 276v576c0 165 -50 373 -304 373c-175 0 -288 -127 -304 -336h156v7c12 205 94 228 153 228c73 0 146 -30 147 -381v-10c-472 -194 -479 -339 -479 -494c0 -167 121 -266 237 -266
c78 0 185 53 253 172zM553 244c-44 -86 -131 -146 -207 -146c-56 0 -121 44 -121 169c0 164 121 256 328 399v-422z" />
    <glyph glyph-name="aring" unicode="&#xe5;" 
d="M263 1503c0 66 34 147 141 147s141 -81 141 -147s-34 -147 -141 -147s-141 81 -141 147zM404 1721c-153 0 -219 -112 -219 -218s66 -218 219 -218s219 112 219 218s-66 218 -219 218zM583 0h140s-18 135 -18 276v576c0 165 -50 373 -304 373c-175 0 -288 -127 -304 -336
h156v7c12 205 94 228 153 228c73 0 146 -30 147 -381v-10c-472 -194 -479 -339 -479 -494c0 -167 121 -266 237 -266c78 0 185 53 253 172zM553 244c-44 -86 -131 -146 -207 -146c-56 0 -121 44 -121 169c0 164 121 256 328 399v-422z" />
    <glyph glyph-name="ae" unicode="&#xe6;" horiz-adv-x="1255" 
d="M253 889c0 6 1 13 1 19c15 194 94 216 152 216c73 0 145 -29 147 -373v-76c-472 -144 -479 -281 -479 -436c0 -167 121 -266 237 -266c78 0 234 46 287 236c30 -149 125 -236 267 -236c222 0 272 169 291 372l2 22h-140v-21c-5 -226 -71 -272 -150 -272v0
c-94 0 -162 74 -162 371v175s438 56 438 338c0 166 -116 267 -258 267c-102 0 -190 -36 -253 -153c-43 98 -114 153 -232 153c-175 0 -288 -127 -304 -336h156zM553 489c0 -105.564 -60.3438 -392 -225 -392c-52 0 -103 53 -103 170c0 164 71 227 328 319v-97zM707 708
c0 240 1 416 186 416c77 0 117 -73 117 -154c0 -95 -26 -211 -303 -266v4z" />
    <glyph glyph-name="ccedilla" unicode="&#xe7;" horiz-adv-x="844" 
d="M338 -394c159 0 250 49 250 117c0 48 -45 105 -142 162v115h-64v-134c59 -39 103 -92 103 -134c0 -39 -40 -67 -147 -67v-59zM108 568c0 -301 0 -595 327 -595c247 0 295 191 305 423v7h-151v-10c-10 -229 -47 -319 -154 -319c-148 0 -177 134 -177 494v62
c0 354 20 494 177 494c111 0 146 -90 154 -309v-9h150c0 4 -1 7 -1 11c-12 216 -64 408 -303 408c-327 0 -327 -316 -327 -595v-62z" />
    <glyph glyph-name="egrave" unicode="&#xe8;" horiz-adv-x="839" 
d="M412 1324h56l-123 398h-162zM109 552c-4 -452 87 -579 332 -579c224 0 279 182 297 388v6h-140v-8c-2 -229 -82 -285 -159 -285c-112 0 -179 48 -179 371v183h480c2 48 2 74 2 123c0 323 -85 474 -302 474c-190 0 -327 -79 -330 -506zM261 702v3c0 274 1 419 186 419
c166 0 143 -237 146 -420v-2h-332z" />
    <glyph glyph-name="eacute" unicode="&#xe9;" horiz-adv-x="839" 
d="M386 1324h56l229 398h-162zM109 552c-4 -452 87 -579 332 -579c224 0 279 182 297 388v6h-140v-8c-2 -229 -82 -285 -159 -285c-112 0 -179 48 -179 371v183h480c2 48 2 74 2 123c0 323 -85 474 -302 474c-190 0 -327 -79 -330 -506zM261 702v3c0 274 1 419 186 419
c166 0 143 -237 146 -420v-2h-332z" />
    <glyph glyph-name="ecircumflex" unicode="&#xea;" horiz-adv-x="839" 
d="M180 1406h113l149 299l150 -299h110l-153 307h-213zM109 552c-4 -452 87 -579 332 -579c224 0 279 182 297 388v6h-140v-8c-2 -229 -82 -285 -159 -285c-112 0 -179 48 -179 371v183h480c2 48 2 74 2 123c0 323 -85 474 -302 474c-190 0 -327 -79 -330 -506zM261 702v3
c0 274 1 419 186 419c166 0 143 -237 146 -420v-2h-332z" />
    <glyph glyph-name="edieresis" unicode="&#xeb;" horiz-adv-x="839" 
d="M156 1384h184v179h-184v-179zM540 1384h184v179h-184v-179zM109 552c-4 -452 87 -579 332 -579c224 0 279 182 297 388v6h-140v-8c-2 -229 -82 -285 -159 -285c-112 0 -179 48 -179 371v183h480c2 48 2 74 2 123c0 323 -85 474 -302 474c-190 0 -327 -79 -330 -506z
M261 702v3c0 274 1 419 186 419c166 0 143 -237 146 -420v-2h-332z" />
    <glyph glyph-name="igrave" unicode="&#xec;" horiz-adv-x="405" 
d="M182 1325h56l-123 398h-162zM132 0h150v1198h-150v-1198z" />
    <glyph glyph-name="iacute" unicode="&#xed;" horiz-adv-x="405" 
d="M156 1325h56l229 398h-162zM132 0h150v1198h-150v-1198z" />
    <glyph glyph-name="icircumflex" unicode="&#xee;" horiz-adv-x="405" 
d="M-50 1407h113l149 299l150 -299h110l-153 307h-213zM132 0h150v1198h-150v-1198z" />
    <glyph glyph-name="idieresis" unicode="&#xef;" horiz-adv-x="405" 
d="M-74 1385h184v179h-184v-179zM310 1385h184v179h-184v-179zM132 0h150v1198h-150v-1198z" />
    <glyph glyph-name="eth" unicode="&#xf0;" horiz-adv-x="877" 
d="M84 532c0 -318 90 -559 328 -559c251 0 346 199 346 537v25c-1 394 -34 668 -105 854l140 32v95l-179 -41c-96 181 -246 255 -462 270l14 -122c143 -12 243 -47 314 -178l-128 -29v-95l165 37c27 -77 50 -176 68 -304c-44 29 -107 45 -183 45c-230 0 -317 -243 -318 -562
v-5zM234 545c2 331 61 432 168 432c66 0 160 -17 192 -46c10 -153 15 -278 15 -380c0 -404 -74 -456 -197 -456c-116 0 -178 102 -178 436v14z" />
    <glyph glyph-name="ntilde" unicode="&#xf1;" horiz-adv-x="893" 
d="M324 1375c7 53 26 66 62 66c53 0 122 -78 193 -78c184 0 181 180 184 190h-116c-7 -53 -30 -67 -66 -67c-50 0 -130 76 -185 76c-170 0 -185 -143 -187 -187h115zM120 0h150v993c60 75 137 121 199 121c69 0 127 -43 127 -170v-944h152v941c0 192 -117 284 -224 284
c-91 0 -187 -42 -254 -140v113h-150v-1198z" />
    <glyph glyph-name="ograve" unicode="&#xf2;" horiz-adv-x="850" 
d="M396 1325h56l-123 398h-162zM258 630c0 354 19 494 167 494c146 0 167 -140 167 -494v-62c0 -360 -27 -494 -167 -494s-167 134 -167 494v62zM108 568c0 -301 0 -595 317 -595s317 294 317 595v62c0 279 0 595 -317 595s-317 -316 -317 -595v-62z" />
    <glyph glyph-name="oacute" unicode="&#xf3;" horiz-adv-x="850" 
d="M370 1325h56l229 398h-162zM258 630c0 354 19 494 167 494c146 0 167 -140 167 -494v-62c0 -360 -27 -494 -167 -494s-167 134 -167 494v62zM108 568c0 -301 0 -595 317 -595s317 294 317 595v62c0 279 0 595 -317 595s-317 -316 -317 -595v-62z" />
    <glyph glyph-name="ocircumflex" unicode="&#xf4;" horiz-adv-x="850" 
d="M164 1407h113l149 299l150 -299h110l-153 307h-213zM258 630c0 354 19 494 167 494c146 0 167 -140 167 -494v-62c0 -360 -27 -494 -167 -494s-167 134 -167 494v62zM108 568c0 -301 0 -595 317 -595s317 294 317 595v62c0 279 0 595 -317 595s-317 -316 -317 -595v-62z
" />
    <glyph glyph-name="otilde" unicode="&#xf5;" horiz-adv-x="850" 
d="M257 1376c7 53 26 66 62 66c53 0 122 -78 193 -78c184 0 181 180 184 190h-116c-7 -53 -30 -67 -66 -67c-50 0 -130 76 -185 76c-170 0 -185 -143 -187 -187h115zM258 630c0 354 19 494 167 494c146 0 167 -140 167 -494v-62c0 -360 -27 -494 -167 -494
s-167 134 -167 494v62zM108 568c0 -301 0 -595 317 -595s317 294 317 595v62c0 279 0 595 -317 595s-317 -316 -317 -595v-62z" />
    <glyph glyph-name="odieresis" unicode="&#xf6;" horiz-adv-x="850" 
d="M140 1385h184v179h-184v-179zM524 1385h184v179h-184v-179zM258 630c0 354 19 494 167 494c146 0 167 -140 167 -494v-62c0 -360 -27 -494 -167 -494s-167 134 -167 494v62zM108 568c0 -301 0 -595 317 -595s317 294 317 595v62c0 279 0 595 -317 595
s-317 -316 -317 -595v-62z" />
    <glyph glyph-name="divide" unicode="&#xf7;" horiz-adv-x="674" 
d="M35 576h568v115h-568v-115zM227 879h184v179h-184v-179zM227 233h184v179h-184v-179z" />
    <glyph glyph-name="oslash" unicode="&#xf8;" horiz-adv-x="852" 
d="M143 -240l48 -16l83 260c40 -20 89 -31 151 -31c317 0 317 294 317 595v62c0 191 0 399 -102 512l104 323l-49 16l-97 -303c-44 30 -100 47 -173 47c-317 0 -317 -316 -317 -595v-62c0 -219 0 -435 122 -536zM258 630c0 354 19 494 167 494s167 -140 167 -494v-62
c0 -360 -27 -494 -167 -494s-167 134 -167 494v62z" />
    <glyph glyph-name="ugrave" unicode="&#xf9;" horiz-adv-x="889" 
d="M411 1325h56l-123 398h-162zM125 257c0 -192 117 -284 224 -284c91 0 187 42 254 140v-113h150v1198h-150v-993c-60 -75 -137 -121 -199 -121c-69 0 -127 43 -127 170v944h-152v-941z" />
    <glyph glyph-name="uacute" unicode="&#xfa;" horiz-adv-x="889" 
d="M385 1325h56l229 398h-162zM125 257c0 -192 117 -284 224 -284c91 0 187 42 254 140v-113h150v1198h-150v-993c-60 -75 -137 -121 -199 -121c-69 0 -127 43 -127 170v944h-152v-941z" />
    <glyph glyph-name="ucircumflex" unicode="&#xfb;" horiz-adv-x="889" 
d="M179 1407h113l149 299l150 -299h110l-153 307h-213zM125 257c0 -192 117 -284 224 -284c91 0 187 42 254 140v-113h150v1198h-150v-993c-60 -75 -137 -121 -199 -121c-69 0 -127 43 -127 170v944h-152v-941z" />
    <glyph glyph-name="udieresis" unicode="&#xfc;" horiz-adv-x="889" 
d="M155 1385h184v179h-184v-179zM539 1385h184v179h-184v-179zM125 257c0 -192 117 -284 224 -284c91 0 187 42 254 140v-113h150v1198h-150v-993c-60 -75 -137 -121 -199 -121c-69 0 -127 43 -127 170v944h-152v-941z" />
    <glyph glyph-name="yacute" unicode="&#xfd;" horiz-adv-x="809" 
d="M348 1325h56l229 398h-162zM81 -299h3c206 6 331 54 373 216l300 1281h-162l-194 -1031l-198 1030h-162l260 -1101c8 -50 11 -108 11 -142c0 -76 -68 -119 -231 -130v-123z" />
    <glyph glyph-name="thorn" unicode="&#xfe;" horiz-adv-x="874" 
d="M120 -385h150v498c70 -109 167 -140 242 -140c111 0 253 55 253 573v95c0 537 -142 584 -264 584c-82 0 -167 -46 -231 -140v636h-150v-2106zM615 545c0 -449 -73 -461 -149 -461c-61 0 -137 50 -196 121v790c62 69 130 119 201 119c73 0 144 -21 144 -474v-95z" />
    <glyph glyph-name="ydieresis" unicode="&#xff;" horiz-adv-x="809" 
d="M118 1385h184v179h-184v-179zM502 1385h184v179h-184v-179zM81 -299h3c206 6 331 54 373 216l300 1281h-162l-194 -1031l-198 1030h-162l260 -1101c8 -50 11 -108 11 -142c0 -76 -68 -119 -231 -130v-123z" />
    <glyph glyph-name="Amacron" unicode="&#x100;" horiz-adv-x="980" 
d="M270 1879h441v115h-441v-115zM204 0l88 448h397l86 -448h154l-340 1721h-198c-161 -799 -179 -923 -340 -1721h153zM310 549l179 1014l181 -1014h-360z" />
    <glyph glyph-name="amacron" unicode="&#x101;" 
d="M184 1355h441v115h-441v-115zM583 0h140s-18 135 -18 276v576c0 165 -50 373 -304 373c-175 0 -288 -127 -304 -336h156v7c12 205 94 228 153 228c73 0 146 -30 147 -381v-10c-472 -194 -479 -339 -479 -494c0 -167 121 -266 237 -266c78 0 185 53 253 172zM553 244
c-44 -86 -131 -146 -207 -146c-56 0 -121 44 -121 169c0 164 121 256 328 399v-422z" />
    <glyph glyph-name="Abreve" unicode="&#x102;" horiz-adv-x="980" 
d="M212 2103c9 -217 166 -268 276 -268s267 51 276 268h-111c-20 -138 -92 -159 -165 -159s-145 21 -165 159h-111zM204 0l88 448h397l86 -448h154l-340 1721h-198c-161 -799 -179 -923 -340 -1721h153zM310 549l179 1014l181 -1014h-360z" />
    <glyph glyph-name="abreve" unicode="&#x103;" 
d="M126 1579c9 -217 166 -268 276 -268s267 51 276 268h-111c-20 -138 -92 -159 -165 -159s-145 21 -165 159h-111zM583 0h140s-18 135 -18 276v576c0 165 -50 373 -304 373c-175 0 -288 -127 -304 -336h156v7c12 205 94 228 153 228c73 0 146 -30 147 -381v-10
c-472 -194 -479 -339 -479 -494c0 -167 121 -266 237 -266c78 0 185 53 253 172zM553 244c-44 -86 -131 -146 -207 -146c-56 0 -121 44 -121 169c0 164 121 256 328 399v-422z" />
    <glyph glyph-name="Aogonek" unicode="&#x104;" horiz-adv-x="980" 
d="M929 -288c-124 0 -187 0 -187 78c0 79 62 148 131 210h-69c-42 -21 -155 -114 -155 -219c0 -125 98 -139 280 -139v70zM204 0l88 448h397l86 -448h154l-340 1721h-198c-161 -799 -179 -923 -340 -1721h153zM310 549l179 1014l181 -1014h-360z" />
    <glyph glyph-name="aogonek" unicode="&#x105;" 
d="M754 -288c-124 0 -187 0 -187 78c0 79 62 148 131 210h-69c-42 -21 -155 -114 -155 -219c0 -125 98 -139 280 -139v70zM583 0h140s-18 135 -18 276v576c0 165 -50 373 -304 373c-175 0 -288 -127 -304 -336h156v7c12 205 94 228 153 228c73 0 146 -30 147 -381v-10
c-472 -194 -479 -339 -479 -494c0 -167 121 -266 237 -266c78 0 185 53 253 172zM553 244c-44 -86 -131 -146 -207 -146c-56 0 -121 44 -121 169c0 164 121 256 328 399v-422z" />
    <glyph glyph-name="Cacute" unicode="&#x106;" horiz-adv-x="1074" 
d="M502 1848h56l229 398h-162zM119 499c0 -289 95 -526 437 -526c318 0 404 237 404 526v84h-145v-118c0 -210 -59 -370 -259 -370c-224 0 -285 160 -285 370v789c0 210 61 369 285 369c200 0 259 -159 259 -369v-104h145v70c0 291 -94 525 -404 525
c-334 0 -437 -234 -437 -525v-721z" />
    <glyph glyph-name="cacute" unicode="&#x107;" horiz-adv-x="834" 
d="M380 1326h56l229 398h-162zM108 568c0 -301 0 -595 327 -595c247 0 295 191 305 423v7h-151v-10c-10 -229 -47 -319 -154 -319c-148 0 -177 134 -177 494v62c0 354 20 494 177 494c111 0 146 -90 154 -309v-9h150c0 4 -1 7 -1 11c-12 216 -64 408 -303 408
c-327 0 -327 -316 -327 -595v-62z" />
    <glyph glyph-name="Ccircumflex" unicode="&#x108;" horiz-adv-x="1073" 
d="M296 1930h113l149 299l150 -299h110l-153 307h-213zM119 499c0 -289 95 -526 437 -526c318 0 404 237 404 526v84h-145v-118c0 -210 -59 -370 -259 -370c-224 0 -285 160 -285 370v789c0 210 61 369 285 369c200 0 259 -159 259 -369v-104h145v70c0 291 -94 525 -404 525
c-334 0 -437 -234 -437 -525v-721z" />
    <glyph glyph-name="ccircumflex" unicode="&#x109;" horiz-adv-x="844" 
d="M174 1408h113l149 299l150 -299h110l-153 307h-213zM108 568c0 -301 0 -595 327 -595c247 0 295 191 305 423v7h-151v-10c-10 -229 -47 -319 -154 -319c-148 0 -177 134 -177 494v62c0 354 20 494 177 494c111 0 146 -90 154 -309v-9h150c0 4 -1 7 -1 11
c-12 216 -64 408 -303 408c-327 0 -327 -316 -327 -595v-62z" />
    <glyph glyph-name="Ccaron" unicode="&#x10c;" horiz-adv-x="1074" 
d="M526 1846h56l209 347h-142l-95 -237l-95 237h-142zM119 499c0 -289 95 -526 437 -526c318 0 404 237 404 526v84h-145v-118c0 -210 -59 -370 -259 -370c-224 0 -285 160 -285 370v789c0 210 61 369 285 369c200 0 259 -159 259 -369v-104h145v70c0 291 -94 525 -404 525
c-334 0 -437 -234 -437 -525v-721z" />
    <glyph glyph-name="ccaron" unicode="&#x10d;" horiz-adv-x="834" 
d="M404 1324h56l209 347h-142l-95 -237l-95 237h-142zM108 568c0 -301 0 -595 327 -595c247 0 295 191 305 423v7h-151v-10c-10 -229 -47 -319 -154 -319c-148 0 -177 134 -177 494v62c0 354 20 494 177 494c111 0 146 -90 154 -309v-9h150c0 4 -1 7 -1 11
c-12 216 -64 408 -303 408c-327 0 -327 -316 -327 -595v-62z" />
    <glyph glyph-name="Emacron" unicode="&#x112;" horiz-adv-x="807" 
d="M221 1879h441v115h-441v-115zM146 0h600v122h-448v710h320v115h-320v652h448v122h-600v-1721z" />
    <glyph glyph-name="emacron" unicode="&#x113;" horiz-adv-x="839" 
d="M222 1355h441v115h-441v-115zM109 552c-4 -452 87 -579 332 -579c224 0 279 182 297 388v6h-140v-8c-2 -229 -82 -285 -159 -285c-112 0 -179 48 -179 371v183h480c2 48 2 74 2 123c0 323 -85 474 -302 474c-190 0 -327 -79 -330 -506zM261 702v3c0 274 1 419 186 419
c166 0 143 -237 146 -420v-2h-332z" />
    <glyph glyph-name="Eogonek" unicode="&#x118;" horiz-adv-x="807" 
d="M746 -288c-124 0 -187 0 -187 78c0 79 62 148 131 210h-69c-42 -21 -155 -114 -155 -219c0 -125 98 -139 280 -139v70zM146 0h600v122h-448v710h320v115h-320v652h448v122h-600v-1721z" />
    <glyph glyph-name="eogonek" unicode="&#x119;" horiz-adv-x="839" 
d="M552 -288c-124 0 -187 0 -187 78c0 79 62 148 131 210h-69c-42 -21 -155 -114 -155 -219c0 -125 98 -139 280 -139v70zM109 552c-4 -452 87 -579 332 -579c224 0 279 182 297 388v6h-140v-8c-2 -229 -82 -285 -159 -285c-112 0 -179 48 -179 371v183h480c2 48 2 74 2 123
c0 323 -85 474 -302 474c-190 0 -327 -79 -330 -506zM261 702v3c0 274 1 419 186 419c166 0 143 -237 146 -420v-2h-332z" />
    <glyph glyph-name="Gcedilla" unicode="&#x122;" horiz-adv-x="1117" 
d="M511 -522c141 15 136 206 136 435h-185v-179h128c0 -47 -14 -168 -106 -201zM119 481c0 -160 23 -508 447 -508c138 0 266 75 312 195l45 -168h67v821h-363v-115h211v-291c0 -151 -48 -320 -270 -320c-239 0 -297 160 -297 320v860c0 178 70 348 302 348
c252 0 265 -227 265 -451v-13h152v12c-2 306 -70 574 -415 574c-366 0 -456 -259 -456 -534v-730z" />
    <glyph glyph-name="gcedilla" unicode="&#x123;" horiz-adv-x="929" 
d="M501 1727c-141 -15 -136 -206 -136 -435h185v179h-128c0 47 14 168 106 201zM905 1221c-86 -21 -144 -117 -182 -183c-71 109 -144 186 -283 186c-253 0 -344 -245 -344 -431c0 -134 40 -284 140 -375c-29 -40 -143 -188 -143 -268c0 -42 161 -83 172 -85
c-108 -55 -236 -159 -236 -305c0 -158 312 -153 404 -153c121 0 408 21 408 263c0 155 -138 221 -283 248c-287 53 -327 53 -327 92c0 54 46 128 69 172c29 -12 89 -24 144 -24c251 0 348 208 348 442c0 54 -15 117 -38 181c39 44 94 85 147 95l20 148zM541 12
c112 -21 156 -67 156 -163c0 -137 -194 -135 -262 -135c-96 0 -248 -5 -248 95c0 76 80 199 140 243zM445 468c-176 0 -196 207 -196 308c0 93 20 327 196 327c175 0 195 -234 195 -327c0 -100 -21 -308 -195 -308z" />
    <glyph glyph-name="Hcircumflex" unicode="&#x124;" horiz-adv-x="1126" 
d="M297 1931h113l149 299l150 -299h110l-153 307h-213zM146 0h152v836h530v-836h152v1721h-152v-779h-530v779h-152v-1721z" />
    <glyph glyph-name="Hbar" unicode="&#x126;" horiz-adv-x="1118" 
d="M140 0h152v836h530v-836h152v1331h40v94h-40v296h-152v-296h-530v296h-152v-296h-40v-94h40v-1331zM292 942v389h530v-389h-530z" />
    <glyph glyph-name="hbar" unicode="&#x127;" horiz-adv-x="912" 
d="M154 0h151v992c60 57 139 96 204 96c54 0 121 -40 121 -154v-934h152v942c0 192 -122 283 -234 283c-87 0 -180 -41 -244 -140v298h168v115h-168v223h-150v-223h-123v-115h123v-1383z" />
    <glyph glyph-name="Itilde" unicode="&#x128;" horiz-adv-x="444" 
d="M53 1899c7 53 26 66 62 66c53 0 122 -78 193 -78c184 0 181 180 184 190h-116c-7 -53 -30 -67 -66 -67c-50 0 -130 76 -185 76c-170 0 -185 -143 -187 -187h115zM145 0h152v1721h-152v-1721z" />
    <glyph glyph-name="itilde" unicode="&#x129;" horiz-adv-x="405" 
d="M20 1376c7 53 26 66 62 66c53 0 122 -78 193 -78c184 0 181 180 184 190h-116c-7 -53 -30 -67 -66 -67c-50 0 -130 76 -185 76c-170 0 -185 -143 -187 -187h115zM132 0h150v1198h-150v-1198z" />
    <glyph glyph-name="Imacron" unicode="&#x12a;" horiz-adv-x="444" 
d="M2 1879h441v115h-441v-115zM145 0h152v1721h-152v-1721z" />
    <glyph glyph-name="imacron" unicode="&#x12b;" horiz-adv-x="405" 
d="M-8 1356h441v115h-441v-115zM132 0h150v1198h-150v-1198z" />
    <glyph glyph-name="Iogonek" unicode="&#x12e;" horiz-adv-x="444" 
d="M297 -288c-124 0 -187 0 -187 78c0 79 62 148 131 210h-69c-42 -21 -155 -114 -155 -219c0 -125 98 -139 280 -139v70zM145 0h152v1721h-152v-1721z" />
    <glyph glyph-name="iogonek" unicode="&#x12f;" horiz-adv-x="405" 
d="M346 -288c-124 0 -187 0 -187 78c0 79 62 148 131 210h-69c-42 -21 -155 -114 -155 -219c0 -125 98 -139 280 -139v70zM132 0h150v1198h-150v-1198zM132 1472h150v179h-150v-179z" />
    <glyph glyph-name="Idotaccent" unicode="&#x130;" horiz-adv-x="444" 
d="M126 1904h184v179h-184v-179zM145 0h152v1721h-152v-1721z" />
    <glyph glyph-name="dotlessi" unicode="&#x131;" horiz-adv-x="405" 
d="M132 0h150v1198h-150v-1198z" />
    <glyph glyph-name="IJ" unicode="&#x132;" horiz-adv-x="986" 
d="M442 0h79c299 0 329 128 329 410v1311h-152v-1311c0 -285 -21 -295 -256 -295v-115zM146 0h152v1721h-152v-1721z" />
    <glyph glyph-name="ij" unicode="&#x133;" horiz-adv-x="405" 
d="M298 -312c31 -6 68 -8 81 -8c163 0 261 78 261 274v1244h-150v-1216c0 -62 0 -188 -136 -188c-10 0 -33 1 -56 2v-108zM490 1473h150v179h-150v-179zM132 0h150v1198h-150v-1198zM132 1472h150v179h-150v-179z" />
    <glyph glyph-name="Jcircumflex" unicode="&#x134;" horiz-adv-x="559" 
d="M77 1930h113l149 299l150 -299h110l-153 307h-213zM12 0h79c299 0 329 128 329 410v1311h-152v-1311c0 -285 -21 -295 -256 -295v-115z" />
    <glyph glyph-name="jcircumflex" unicode="&#x135;" horiz-adv-x="410" 
d="M-65 1407h113l149 299l150 -299h110l-153 307h-213zM-72 -312c31 -6 68 -8 81 -8c163 0 261 78 261 274v1244h-150v-1216c0 -62 0 -188 -136 -188c-10 0 -33 1 -56 2v-108z" />
    <glyph glyph-name="kcommaaccent" unicode="&#x137;" horiz-adv-x="870" 
d="M416 -522c141 15 136 206 136 435h-185v-179h128c0 -47 -14 -168 -106 -201zM120 0h150v470l149 183l235 -653h157l-285 744l287 454h-169l-374 -568v1091h-150v-1721z" />
    <glyph glyph-name="kgreenlandic" unicode="&#x138;" horiz-adv-x="880" 
d="M120 0h150v420l141 199l243 -619h162l-296 717l295 481h-171l-374 -598v598h-150v-1198z" />
    <glyph glyph-name="Ldotaccent" unicode="&#x13f;" horiz-adv-x="811" 
d="M493 789h184v179h-184v-179zM143 0h633v122h-481v1599h-152v-1721z" />
    <glyph glyph-name="ldot" unicode="&#x140;" horiz-adv-x="791" 
d="M558 704h185v179h-185v-179zM145 0h150v1721h-150v-1721z" />
    <glyph glyph-name="Lslash" unicode="&#x141;" horiz-adv-x="827" 
d="M183 0h633v122h-481v794l251 96v115l-251 -96v690h-152v-747l-140 -53v-115l140 53v-859z" />
    <glyph glyph-name="lslash" unicode="&#x142;" horiz-adv-x="530" 
d="M183 0h150v946l136 66v115l-136 -66v660h-150v-733l-140 -67v-115l140 67v-873z" />
    <glyph glyph-name="Nacute" unicode="&#x143;" horiz-adv-x="1083" 
d="M502 1848h56l229 398h-162zM146 0h131v1334l546 -1334h114v1721h-129v-1363l-545 1363h-117v-1721z" />
    <glyph glyph-name="nacute" unicode="&#x144;" horiz-adv-x="878" 
d="M437 1324h56l229 398h-162zM120 0h150v993c60 75 137 121 199 121c69 0 127 -43 127 -170v-944h152v941c0 192 -117 284 -224 284c-91 0 -187 -42 -254 -140v113h-150v-1198z" />
    <glyph glyph-name="OE" unicode="&#x152;" horiz-adv-x="1499" 
d="M115 499c0 -273 97 -499 439 -499h887v122h-448v710h320v115h-320v652h448v122h-887c-334 0 -439 -222 -439 -501v-721zM554 121c-224 2 -287 157 -287 344v789c0 192 63 345 287 345h287v-1478h-287z" />
    <glyph glyph-name="oe" unicode="&#x153;" horiz-adv-x="1332" 
d="M108 568c0 -301 0 -595 317 -595c122 0 197 44 243 114c53 -84 136 -114 256 -114c223 0 278 181 296 386c0 3 1 5 1 8h-140v-12c-3 -225 -82 -281 -159 -281c-112 0 -179 48 -179 371v183h480c2 48 2 74 2 123c0 323 -85 474 -302 474c-106 0 -196 -25 -255 -121
c-46 74 -121 121 -243 121c-317 0 -317 -316 -317 -595v-62zM258 630c0 354 19 494 167 494c146 0 167 -140 167 -494v-62c0 -360 -27 -494 -167 -494s-167 134 -167 494v62zM744 702v17c0 265 4 405 186 405c162 0 144 -225 146 -406v-16h-332z" />
    <glyph glyph-name="Racute" unicode="&#x154;" horiz-adv-x="1078" 
d="M494 1848h56l229 398h-162zM146 0h152v840h289l251 -840h162l-266 859c189 69 240 241 240 417c0 239 -70 445 -369 445h-459v-1721zM298 962v637h306c178 0 218 -147 218 -318c0 -161 -36 -319 -218 -319h-306z" />
    <glyph glyph-name="Rcommaaccent" unicode="&#x156;" horiz-adv-x="1078" 
d="M513 -522c141 15 136 206 136 435h-185v-179h128c0 -47 -14 -168 -106 -201zM146 0h152v840h289l251 -840h162l-266 859c189 69 240 241 240 417c0 239 -70 445 -369 445h-459v-1721zM298 962v637h306c178 0 218 -147 218 -318c0 -161 -36 -319 -218 -319h-306z" />
    <glyph glyph-name="rcommaaccent" unicode="&#x157;" horiz-adv-x="569" 
d="M231 -522c141 15 136 206 136 435h-185v-179h128c0 -47 -14 -168 -106 -201zM120 0h150v894c0 141 114 176 229 176c12 0 26 -4 26 -4v151h-3c-90 -2 -212 -53 -252 -188v169h-150v-1198z" />
    <glyph glyph-name="Rcaron" unicode="&#x158;" horiz-adv-x="1078" 
d="M518 1846h56l209 347h-142l-95 -237l-95 237h-142zM146 0h152v840h289l251 -840h162l-266 859c189 69 240 241 240 417c0 239 -70 445 -369 445h-459v-1721zM298 962v637h306c178 0 218 -147 218 -318c0 -161 -36 -319 -218 -319h-306z" />
    <glyph glyph-name="rcaron" unicode="&#x159;" horiz-adv-x="569" 
d="M315 1323h56l209 347h-142l-95 -237l-95 237h-142zM120 0h150v894c0 141 114 176 229 176c12 0 26 -4 26 -4v151h-3c-90 -2 -212 -53 -252 -188v169h-150v-1198z" />
    <glyph glyph-name="Sacute" unicode="&#x15a;" horiz-adv-x="987" 
d="M418 1848h56l229 398h-162zM81 415c36 -237 172 -442 424 -442c231 0 407 130 407 384c0 198 -151 340 -286 488l-253 275c-83 90 -141 177 -141 274c0 155 103 229 249 229c164 0 257 -132 282 -293l2 -14l128 40l-3 16c-45 241 -182 373 -409 373
c-229 0 -396 -143 -396 -371c0 -129 81 -237 182 -344l269 -283c125 -132 231 -257 231 -403c0 -158 -88 -249 -245 -249c-204 0 -286 178 -307 359z" />
    <glyph glyph-name="sacute" unicode="&#x15b;" horiz-adv-x="760" 
d="M318 1329h56l229 398h-162zM54 300c43 -174 157 -327 344 -327c177 0 305 107 305 289c-3 171 -124 277 -240 378l-95 82c-84 72 -150 143 -150 230c0 94 55 163 146 163c111 0 165 -138 181 -237l133 41c-38 155 -128 304 -307 304s-301 -100 -301 -284
c0 -125 93 -215 200 -309l87 -76c100 -88 205 -199 205 -295c0 -104 -49 -178 -158 -178c-121 0 -201 154 -235 258z" />
    <glyph glyph-name="Scaron" unicode="&#x160;" horiz-adv-x="1018" 
d="M485 1846h56l209 347h-142l-95 -237l-95 237h-142zM79 415c36 -237 172 -442 424 -442c231 0 407 130 407 384c0 198 -151 340 -286 488l-253 275c-83 90 -141 177 -141 274c0 155 103 229 249 229c164 0 257 -132 282 -293l2 -14l128 40l-3 16
c-45 241 -182 373 -409 373c-229 0 -396 -143 -396 -371c0 -129 81 -237 182 -344l269 -283c125 -132 231 -257 231 -403c0 -158 -88 -249 -245 -249c-204 0 -286 178 -307 359z" />
    <glyph glyph-name="scaron" unicode="&#x161;" horiz-adv-x="819" 
d="M381 1327h56l209 347h-142l-95 -237l-95 237h-142zM62 300c43 -174 157 -327 344 -327c177 0 305 107 305 289c-3 171 -124 277 -240 378l-95 82c-84 72 -150 143 -150 230c0 94 55 163 146 163c111 0 165 -138 181 -237l133 41c-38 155 -128 304 -307 304
s-301 -100 -301 -284c0 -125 93 -215 200 -309l87 -76c100 -88 205 -199 205 -295c0 -104 -49 -178 -158 -178c-121 0 -201 154 -235 258z" />
    <glyph glyph-name="Umacron" unicode="&#x16a;" horiz-adv-x="1145" 
d="M359 1879h441v115h-441v-115zM135 423c0 -242 92 -450 445 -450c339 0 429 208 429 450v1298h-151v-1333c0 -187 -70 -293 -278 -293c-220 0 -293 104 -293 293v1333h-152v-1298z" />
    <glyph glyph-name="umacron" unicode="&#x16b;" horiz-adv-x="889" 
d="M221 1356h441v115h-441v-115zM125 257c0 -192 117 -284 224 -284c91 0 187 42 254 140v-113h150v1198h-150v-993c-60 -75 -137 -121 -199 -121c-69 0 -127 43 -127 170v944h-152v-941z" />
    <glyph glyph-name="Uogonek" unicode="&#x172;" horiz-adv-x="1145" 
d="M706 -288c-124 0 -187 0 -187 78c0 79 62 148 131 210h-69c-42 -21 -155 -114 -155 -219c0 -125 98 -139 280 -139v70zM135 423c0 -242 92 -450 445 -450c339 0 429 208 429 450v1298h-151v-1333c0 -187 -70 -293 -278 -293c-220 0 -293 104 -293 293v1333h-152v-1298z
" />
    <glyph glyph-name="uogonek" unicode="&#x173;" horiz-adv-x="889" 
d="M803 -288c-124 0 -187 0 -187 78c0 79 62 148 131 210h-69c-42 -21 -155 -114 -155 -219c0 -125 98 -139 280 -139v70zM125 257c0 -192 117 -284 224 -284c91 0 187 42 254 140v-113h150v1198h-150v-993c-60 -75 -137 -121 -199 -121c-69 0 -127 43 -127 170v944h-152
v-941z" />
    <glyph glyph-name="Ydieresis" unicode="&#x178;" horiz-adv-x="888" 
d="M216 1908h184v179h-184v-179zM600 1908h184v179h-184v-179zM374 0h152v534l364 1187h-159c-124 -446 -160 -586 -282 -1032l-282 1032h-169l376 -1187v-534z" />
    <glyph glyph-name="Zacute" unicode="&#x179;" horiz-adv-x="897" 
d="M420 1848h56l229 398h-162zM68 0h761v122h-605l605 1458v141h-697v-122h541l-605 -1458v-141z" />
    <glyph glyph-name="zacute" unicode="&#x17a;" horiz-adv-x="731" 
d="M358 1325h56l229 398h-162zM68 0h607v115h-455l461 940v143h-549v-114h408l-472 -940v-144z" />
    <glyph glyph-name="Zdotaccent" unicode="&#x17b;" horiz-adv-x="901" 
d="M380 1904h184v179h-184v-179zM68 0h761v122h-605l605 1458v141h-697v-122h541l-605 -1458v-141z" />
    <glyph glyph-name="zdotaccent" unicode="&#x17c;" horiz-adv-x="788" 
d="M326 1381h184v179h-184v-179zM76 0h607v115h-455l461 940v143h-549v-114h408l-472 -940v-144z" />
    <glyph glyph-name="Zcaron" unicode="&#x17d;" horiz-adv-x="899" 
d="M444 1846h56l209 347h-142l-95 -237l-95 237h-142zM61 0h761v122h-605l605 1458v141h-697v-122h541l-605 -1458v-141z" />
    <glyph glyph-name="zcaron" unicode="&#x17e;" horiz-adv-x="784" 
d="M403 1323h56l209 347h-142l-95 -237l-95 237h-142zM72 0h607v115h-455l461 940v143h-549v-114h408l-472 -940v-144z" />
    <glyph glyph-name="florin" unicode="&#x192;" horiz-adv-x="571" 
d="M-14 -381c37 -9 81 -13 122 -13c205 0 217 175 217 284v1224h192v84h-192v180c0 71 -5 158 115 158c13 0 62 -3 74 -6v109c-37 9 -81 13 -122 13c-205 0 -217 -176 -217 -285v-169h-167v-84h167v-1234c0 -71 5 -158 -115 -158c-13 0 -62 3 -74 6v-109z" />
    <glyph glyph-name="uni01C4" unicode="&#x1c4;" horiz-adv-x="1707" 
 />
    <glyph glyph-name="uni01C5" unicode="&#x1c5;" horiz-adv-x="1822" 
d="M517 1847h56l209 347h-142l-95 -237l-95 237h-142zM1159 0h607v115h-455l461 940v143h-549v-114h408l-472 -940v-144zM298 122v1477h235c224 0 287 -159 287 -357v-768c0 -192 -63 -352 -287 -352h-235zM146 0h387c342 0 439 230 439 508v700c0 285 -105 513 -439 513
h-387v-1721z" />
    <glyph glyph-name="uni01C6" unicode="&#x1c6;" horiz-adv-x="1707" 
 />
    <glyph glyph-name="uni01C7" unicode="&#x1c7;" horiz-adv-x="1342" 
d="M795 0h79c299 0 329 128 329 410v1311h-152v-1311c0 -285 -21 -295 -256 -295v-115zM146 0h633v122h-481v1599h-152v-1721z" />
    <glyph glyph-name="uni01C8" unicode="&#x1c8;" horiz-adv-x="1203" 
d="M715 -312c31 -6 68 -8 81 -8c163 0 261 78 261 274v1244h-150v-1216c0 -62 0 -188 -136 -188c-10 0 -33 1 -56 2v-108zM907 1473h150v179h-150v-179zM146 0h633v122h-481v1599h-152v-1721z" />
    <glyph glyph-name="uni01C9" unicode="&#x1c9;" horiz-adv-x="862" 
d="M374 -312c31 -6 68 -8 81 -8c163 0 261 78 261 274v1244h-150v-1216c0 -62 0 -188 -136 -188c-10 0 -33 1 -56 2v-108zM566 1473h150v179h-150v-179zM150 0h150v1721h-150v-1721z" />
    <glyph glyph-name="uni01CA" unicode="&#x1ca;" horiz-adv-x="1642" 
d="M1095 0h79c299 0 329 128 329 410v1311h-152v-1311c0 -285 -21 -295 -256 -295v-115zM146 0h131v1334l546 -1334h114v1721h-129v-1363l-545 1363h-117v-1721z" />
    <glyph glyph-name="uni01CB" unicode="&#x1cb;" horiz-adv-x="1503" 
d="M1015 -312c31 -6 68 -8 81 -8c163 0 261 78 261 274v1244h-150v-1216c0 -62 0 -188 -136 -188c-10 0 -33 1 -56 2v-108zM1207 1473h150v179h-150v-179zM146 0h131v1334l546 -1334h114v1721h-129v-1363l-545 1363h-117v-1721z" />
    <glyph glyph-name="uni01CC" unicode="&#x1cc;" horiz-adv-x="1298" 
d="M810 -312c31 -6 68 -8 81 -8c163 0 261 78 261 274v1244h-150v-1216c0 -62 0 -188 -136 -188c-10 0 -33 1 -56 2v-108zM1002 1473h150v179h-150v-179zM120 0h150v993c60 75 137 121 199 121c69 0 127 -43 127 -170v-944h152v941c0 192 -117 284 -224 284
c-91 0 -187 -42 -254 -140v113h-150v-1198z" />
    <glyph glyph-name="DZ" unicode="&#x1f1;" horiz-adv-x="2018" 
d="M1192 0h761v122h-605l605 1458v141h-697v-122h541l-605 -1458v-141zM298 122v1477h235c224 0 287 -159 287 -357v-768c0 -192 -63 -352 -287 -352h-235zM146 0h387c342 0 439 230 439 508v700c0 285 -105 513 -439 513h-387v-1721z" />
    <glyph glyph-name="Dz" unicode="&#x1f2;" horiz-adv-x="1861" 
d="M1151 0h607v115h-455l461 940v143h-549v-114h408l-472 -940v-144zM298 122v1477h235c224 0 287 -159 287 -357v-768c0 -192 -63 -352 -287 -352h-235zM146 0h387c342 0 439 230 439 508v700c0 285 -105 513 -439 513h-387v-1721z" />
    <glyph glyph-name="uni0200" unicode="&#x200;" horiz-adv-x="980" 
d="M609 1932h59l-106 313h-160zM378 1932h59l-106 313h-160zM204 0l88 448h397l86 -448h154l-340 1721h-198c-161 -799 -179 -923 -340 -1721h153zM310 549l179 1014l181 -1014h-360z" />
    <glyph glyph-name="uni0201" unicode="&#x201;" 
d="M523 1408h59l-106 313h-160zM292 1408h59l-106 313h-160zM583 0h140s-18 135 -18 276v576c0 165 -50 373 -304 373c-175 0 -288 -127 -304 -336h156v7c12 205 94 228 153 228c73 0 146 -30 147 -381v-10c-472 -194 -479 -339 -479 -494c0 -167 121 -266 237 -266
c78 0 185 53 253 172zM553 244c-44 -86 -131 -146 -207 -146c-56 0 -121 44 -121 169c0 164 121 256 328 399v-422z" />
    <glyph glyph-name="uni0202" unicode="&#x202;" horiz-adv-x="980" 
d="M323 1835c20 138 92 159 165 159s145 -21 165 -159h111c-9 217 -166 268 -276 268s-267 -51 -276 -268h111zM204 0l88 448h397l86 -448h154l-340 1721h-198c-161 -799 -179 -923 -340 -1721h153zM310 549l179 1014l181 -1014h-360z" />
    <glyph glyph-name="uni0203" unicode="&#x203;" 
d="M237 1311c20 138 92 159 165 159s145 -21 165 -159h111c-9 217 -166 268 -276 268s-267 -51 -276 -268h111zM583 0h140s-18 135 -18 276v576c0 165 -50 373 -304 373c-175 0 -288 -127 -304 -336h156v7c12 205 94 228 153 228c73 0 146 -30 147 -381v-10
c-472 -194 -479 -339 -479 -494c0 -167 121 -266 237 -266c78 0 185 53 253 172zM553 244c-44 -86 -131 -146 -207 -146c-56 0 -121 44 -121 169c0 164 121 256 328 399v-422z" />
    <glyph glyph-name="uni0204" unicode="&#x204;" horiz-adv-x="807" 
d="M560 1932h59l-106 313h-160zM329 1932h59l-106 313h-160zM146 0h600v122h-448v710h320v115h-320v652h448v122h-600v-1721z" />
    <glyph glyph-name="uni0205" unicode="&#x205;" horiz-adv-x="839" 
d="M561 1408h59l-106 313h-160zM330 1408h59l-106 313h-160zM109 552c-4 -452 87 -579 332 -579c224 0 279 182 297 388v6h-140v-8c-2 -229 -82 -285 -159 -285c-112 0 -179 48 -179 371v183h480c2 48 2 74 2 123c0 323 -85 474 -302 474c-190 0 -327 -79 -330 -506z
M261 702v3c0 274 1 419 186 419c166 0 143 -237 146 -420v-2h-332z" />
    <glyph glyph-name="uni0206" unicode="&#x206;" horiz-adv-x="807" 
d="M274 1835c20 138 92 159 165 159s145 -21 165 -159h111c-9 217 -166 268 -276 268s-267 -51 -276 -268h111zM146 0h600v122h-448v710h320v115h-320v652h448v122h-600v-1721z" />
    <glyph glyph-name="uni0207" unicode="&#x207;" horiz-adv-x="839" 
d="M275 1311c20 138 92 159 165 159s145 -21 165 -159h111c-9 217 -166 268 -276 268s-267 -51 -276 -268h111zM109 552c-4 -452 87 -579 332 -579c224 0 279 182 297 388v6h-140v-8c-2 -229 -82 -285 -159 -285c-112 0 -179 48 -179 371v183h480c2 48 2 74 2 123
c0 323 -85 474 -302 474c-190 0 -327 -79 -330 -506zM261 702v3c0 274 1 419 186 419c166 0 143 -237 146 -420v-2h-332z" />
    <glyph glyph-name="uni0208" unicode="&#x208;" horiz-adv-x="444" 
d="M341 1932h59l-106 313h-160zM110 1932h59l-106 313h-160zM145 0h152v1721h-152v-1721z" />
    <glyph glyph-name="uni0209" unicode="&#x209;" horiz-adv-x="405" 
d="M331 1409h59l-106 313h-160zM100 1409h59l-106 313h-160zM132 0h150v1198h-150v-1198z" />
    <glyph glyph-name="uni020A" unicode="&#x20a;" horiz-adv-x="444" 
d="M55 1835c20 138 92 159 165 159s145 -21 165 -159h111c-9 217 -166 268 -276 268s-267 -51 -276 -268h111zM145 0h152v1721h-152v-1721z" />
    <glyph glyph-name="uni020B" unicode="&#x20b;" horiz-adv-x="405" 
d="M132 0h150v1198h-150v-1198zM38 1313c20 138 92 159 165 159s145 -21 165 -159h111c-9 217 -166 268 -276 268s-267 -51 -276 -268h111z" />
    <glyph glyph-name="uni020C" unicode="&#x20c;" horiz-adv-x="1116" 
d="M678 1932h59l-106 313h-160zM447 1932h59l-106 313h-160zM845 465c0 -204 -63 -370 -287 -370s-287 166 -287 370v789c0 204 63 369 287 369s287 -165 287 -369v-789zM119 499c0 -289 97 -526 439 -526s439 237 439 526v721c0 291 -105 525 -439 525s-439 -234 -439 -525
v-721z" />
    <glyph glyph-name="uni020D" unicode="&#x20d;" horiz-adv-x="850" 
d="M545 1409h59l-106 313h-160zM314 1409h59l-106 313h-160zM258 630c0 354 19 494 167 494c146 0 167 -140 167 -494v-62c0 -360 -27 -494 -167 -494s-167 134 -167 494v62zM108 568c0 -301 0 -595 317 -595s317 294 317 595v62c0 279 0 595 -317 595s-317 -316 -317 -595
v-62z" />
    <glyph glyph-name="uni020E" unicode="&#x20e;" horiz-adv-x="1116" 
d="M392 1835c20 138 92 159 165 159s145 -21 165 -159h111c-9 217 -166 268 -276 268s-267 -51 -276 -268h111zM845 465c0 -204 -63 -370 -287 -370s-287 166 -287 370v789c0 204 63 369 287 369s287 -165 287 -369v-789zM119 499c0 -289 97 -526 439 -526s439 237 439 526
v721c0 291 -105 525 -439 525s-439 -234 -439 -525v-721z" />
    <glyph glyph-name="uni020F" unicode="&#x20f;" horiz-adv-x="850" 
d="M259 1312c20 138 92 159 165 159s145 -21 165 -159h111c-9 217 -166 268 -276 268s-267 -51 -276 -268h111zM258 630c0 354 19 494 167 494c146 0 167 -140 167 -494v-62c0 -360 -27 -494 -167 -494s-167 134 -167 494v62zM108 568c0 -301 0 -595 317 -595
s317 294 317 595v62c0 279 0 595 -317 595s-317 -316 -317 -595v-62z" />
    <glyph glyph-name="uni0210" unicode="&#x210;" horiz-adv-x="1069" 
d="M669 1932h59l-106 313h-160zM438 1932h59l-106 313h-160zM146 0h152v840h289l251 -840h162l-266 859c189 69 240 241 240 417c0 239 -70 445 -369 445h-459v-1721zM298 962v637h306c178 0 218 -147 218 -318c0 -161 -36 -319 -218 -319h-306z" />
    <glyph glyph-name="uni0211" unicode="&#x211;" horiz-adv-x="569" 
d="M442 1409h59l-106 313h-160zM211 1409h59l-106 313h-160zM120 0h150v894c0 141 114 176 229 176c12 0 26 -4 26 -4v151h-3c-90 -2 -212 -53 -252 -188v169h-150v-1198z" />
    <glyph glyph-name="uni0212" unicode="&#x212;" horiz-adv-x="1069" 
d="M383 1835c20 138 92 159 165 159s145 -21 165 -159h111c-9 217 -166 268 -276 268s-267 -51 -276 -268h111zM146 0h152v840h289l251 -840h162l-266 859c189 69 240 241 240 417c0 239 -70 445 -369 445h-459v-1721zM298 962v637h306c178 0 218 -147 218 -318
c0 -161 -36 -319 -218 -319h-306z" />
    <glyph glyph-name="uni0213" unicode="&#x213;" horiz-adv-x="569" 
d="M156 1312c20 138 92 159 165 159s145 -21 165 -159h111c-9 217 -166 268 -276 268s-267 -51 -276 -268h111zM120 0h150v894c0 141 114 176 229 176c12 0 26 -4 26 -4v151h-3c-90 -2 -212 -53 -252 -188v169h-150v-1198z" />
    <glyph glyph-name="uni0214" unicode="&#x214;" horiz-adv-x="1138" 
d="M695 1932h59l-106 313h-160zM464 1932h59l-106 313h-160zM132 423c0 -242 92 -450 445 -450c339 0 429 208 429 450v1298h-151v-1333c0 -187 -70 -293 -278 -293c-220 0 -293 104 -293 293v1333h-152v-1298z" />
    <glyph glyph-name="uni0215" unicode="&#x215;" horiz-adv-x="878" 
d="M565 1409h59l-106 313h-160zM334 1409h59l-106 313h-160zM130 257c0 -192 117 -284 224 -284c91 0 187 42 254 140v-113h150v1198h-150v-993c-60 -75 -137 -121 -199 -121c-69 0 -127 43 -127 170v944h-152v-941z" />
    <glyph glyph-name="uni0216" unicode="&#x216;" horiz-adv-x="1138" 
d="M409 1835c20 138 92 159 165 159s145 -21 165 -159h111c-9 217 -166 268 -276 268s-267 -51 -276 -268h111zM132 423c0 -242 92 -450 445 -450c339 0 429 208 429 450v1298h-151v-1333c0 -187 -70 -293 -278 -293c-220 0 -293 104 -293 293v1333h-152v-1298z" />
    <glyph glyph-name="uni0217" unicode="&#x217;" horiz-adv-x="878" 
d="M279 1312c20 138 92 159 165 159s145 -21 165 -159h111c-9 217 -166 268 -276 268s-267 -51 -276 -268h111zM130 257c0 -192 117 -284 224 -284c91 0 187 42 254 140v-113h150v1198h-150v-993c-60 -75 -137 -121 -199 -121c-69 0 -127 43 -127 170v944h-152v-941z" />
    <glyph glyph-name="uni0218" unicode="&#x218;" horiz-adv-x="987" 
d="M467 -522c141 15 136 206 136 435h-185v-179h128c0 -47 -14 -168 -106 -201zM81 415c36 -237 172 -442 424 -442c231 0 407 130 407 384c0 198 -151 340 -286 488l-253 275c-83 90 -141 177 -141 274c0 155 103 229 249 229c164 0 257 -132 282 -293l2 -14l128 40l-3 16
c-45 241 -182 373 -409 373c-229 0 -396 -143 -396 -371c0 -129 81 -237 182 -344l269 -283c125 -132 231 -257 231 -403c0 -158 -88 -249 -245 -249c-204 0 -286 178 -307 359z" />
    <glyph glyph-name="uni0219" unicode="&#x219;" horiz-adv-x="760" 
d="M338 -522c141 15 136 206 136 435h-185v-179h128c0 -47 -14 -168 -106 -201zM54 300c43 -174 157 -327 344 -327c177 0 305 107 305 289c-3 171 -124 277 -240 378l-95 82c-84 72 -150 143 -150 230c0 94 55 163 146 163c111 0 165 -138 181 -237l133 41
c-38 155 -128 304 -307 304s-301 -100 -301 -284c0 -125 93 -215 200 -309l87 -76c100 -88 205 -199 205 -295c0 -104 -49 -178 -158 -178c-121 0 -201 154 -235 258z" />
    <glyph glyph-name="uni021A" unicode="&#x21a;" horiz-adv-x="755" 
d="M331 -522c4 0 7 1 11 2c130 24 125 210 125 433h-185v-179h128c0 -47 -14 -168 -106 -201zM300 0h152v1599h338v122h-825v-122h335v-1599z" />
    <glyph glyph-name="uni021B" unicode="&#x21b;" horiz-adv-x="594" 
d="M251 -522c4 0 7 1 11 2c130 24 125 210 125 433h-185v-179h128c0 -47 -14 -168 -106 -201zM179 283c0 -153 17 -301 210 -301c38 0 79 4 130 17v103c-29 -6 -59 -8 -88 -8c-98 0 -102 75 -102 196v824h192v84h-192v425h-150v-425h-163v-84h163v-831z" />
    <glyph glyph-name="dotlessj" unicode="&#x237;" horiz-adv-x="410" 
d="M-72 -312c31 -6 68 -8 81 -8c163 0 261 78 261 274v1244h-150v-1216c0 -62 0 -188 -136 -188c-10 0 -33 1 -56 2v-108z" />
    <glyph glyph-name="circumflex" unicode="&#x2c6;" horiz-adv-x="713" 
d="M94 1408h113l149 299l150 -299h110l-153 307h-213z" />
    <glyph glyph-name="caron" unicode="&#x2c7;" horiz-adv-x="618" 
d="M283 1324h56l209 347h-142l-95 -237l-95 237h-142z" />
    <glyph glyph-name="breve" unicode="&#x2d8;" horiz-adv-x="739" 
d="M92 1581c9 -217 166 -268 276 -268s267 51 276 268h-111c-20 -138 -92 -159 -165 -159s-145 21 -165 159h-111z" />
    <glyph glyph-name="dotaccent" unicode="&#x2d9;" horiz-adv-x="410" 
d="M113 1380h184v179h-184v-179z" />
    <glyph glyph-name="ring" unicode="&#x2da;" horiz-adv-x="637" 
d="M176 1504c0 66 34 147 141 147s141 -81 141 -147s-34 -147 -141 -147s-141 81 -141 147zM317 1722c-153 0 -219 -112 -219 -218s66 -218 219 -218s219 112 219 218s-66 218 -219 218z" />
    <glyph glyph-name="ogonek" unicode="&#x2db;" horiz-adv-x="475" 
d="M378 -288c-124 0 -187 0 -187 78c0 79 62 148 131 210h-69c-42 -21 -155 -114 -155 -219c0 -125 98 -139 280 -139v70z" />
    <glyph glyph-name="tilde" unicode="&#x2dc;" horiz-adv-x="754" 
d="M217 1376c7 53 26 66 62 66c53 0 122 -78 193 -78c184 0 181 180 184 190h-116c-7 -53 -30 -67 -66 -67c-50 0 -130 76 -185 76c-170 0 -185 -143 -187 -187h115z" />
    <glyph glyph-name="hungarumlaut" unicode="&#x2dd;" horiz-adv-x="655" 
d="M100 1408h59l207 313h-160zM331 1408h59l207 313h-160z" />
    <glyph glyph-name="dotaccentcmb" unicode="&#x307;" horiz-adv-x="410" 
d="M113 1380h184v179h-184v-179z" />
    <glyph glyph-name="uni030F" unicode="&#x30f;" horiz-adv-x="666" 
d="M506 1408h59l-106 313h-160zM275 1408h59l-106 313h-160z" />
    <glyph glyph-name="uni0311" unicode="&#x311;" horiz-adv-x="737" 
d="M201 1313c20 138 92 159 165 159s145 -21 165 -159h111c-9 217 -166 268 -276 268s-267 -51 -276 -268h111z" />
    <glyph glyph-name="uni0326" unicode="&#x326;" horiz-adv-x="502" 
d="M205 -522c4 0 7 1 11 2c130 24 125 210 125 433h-185v-179h128c0 -47 -14 -168 -106 -201z" />
    <glyph glyph-name="endash" unicode="&#x2013;" horiz-adv-x="793" 
d="M117 448h574v115h-574v-115z" />
    <glyph glyph-name="emdash" unicode="&#x2014;" horiz-adv-x="1194" 
d="M117 448h974v115h-974v-115z" />
    <glyph glyph-name="quoteleft" unicode="&#x2018;" horiz-adv-x="403" 
d="M296 1311v179h-128c0 38 5 168 106 201l-27 55c-121 -15 -136 -132 -136 -435h185z" />
    <glyph glyph-name="quoteright" unicode="&#x2019;" horiz-adv-x="393" 
d="M149 1286c121 15 136 132 136 435h-185v-179h128c0 -38 -5 -168 -106 -201z" />
    <glyph glyph-name="quotesinglbase" unicode="&#x201a;" horiz-adv-x="403" 
d="M173 -321h68c26 152 24 153 50 307h-168z" />
    <glyph glyph-name="quotedblleft" unicode="&#x201c;" horiz-adv-x="698" 
d="M296 1311v179h-128c0 38 5 168 106 201l-27 55c-121 -15 -136 -132 -136 -435h185zM590 1311v179h-128c0 38 5 168 106 201l-27 55c-121 -15 -136 -132 -136 -435h185z" />
    <glyph glyph-name="quotedblright" unicode="&#x201d;" horiz-adv-x="686" 
d="M149 1286c121 15 136 132 136 435h-185v-179h128c0 -38 -5 -168 -106 -201zM443 1286c121 15 136 132 136 435h-185v-179h128c0 -38 -5 -168 -106 -201z" />
    <glyph glyph-name="quotedblbase" unicode="&#x201e;" horiz-adv-x="725" 
d="M174 -320h67c26 152 24 153 50 307h-168zM497 -320h67c26 152 24 153 50 307h-168z" />
    <glyph glyph-name="daggerdbl" unicode="&#x2021;" horiz-adv-x="590" 
d="M244 0h118v448h224v89h-224v577h224v83h-224v262h-118v-262h-226v-83h226v-577h-226v-89h226v-448z" />
    <glyph glyph-name="bullet" unicode="&#x2022;" horiz-adv-x="565" 
d="M104 767c0 -113 72 -179 182 -179c113 0 183 66 183 179c0 116 -70 182 -183 182c-110 0 -182 -75 -182 -182z" />
    <glyph glyph-name="guilsinglleft" unicode="&#x2039;" horiz-adv-x="561" 
d="M466 124v200l-276 317l276 315v200l-388 -452v-128z" />
    <glyph glyph-name="guilsinglright" unicode="&#x203a;" horiz-adv-x="561" 
d="M78 124l388 452v128l-388 452v-200l276 -315l-276 -317v-200z" />
    <glyph glyph-name="fraction" unicode="&#x2044;" horiz-adv-x="651" 
d="M-29 0h144l553 1721h-145z" />
    <glyph glyph-name="foursuperior" unicode="&#x2074;" horiz-adv-x="737" 
d="M39 866h375v-277h136v277h134v102h-134v754h-210l-301 -761v-95zM184 968l229 638l1 -638h-230z" />
    <glyph glyph-name="Euro" unicode="&#x20ac;" horiz-adv-x="1096" 
d="M163 499c0 -289 95 -526 437 -526c318 0 404 237 404 526v84h-145v-118c0 -210 -59 -370 -259 -370c-224 0 -285 160 -285 370v230h268v89h-268v132h268v89h-268v249c0 210 61 369 285 369c200 0 259 -159 259 -369v-104h145v70c0 291 -94 525 -404 525
c-334 0 -437 -234 -437 -525v-215h-122v-89h122v-132h-122v-89h122v-196z" />
    <glyph glyph-name="trademark" unicode="&#x2122;" horiz-adv-x="1399" 
d="M220 686h99v678h164v77h-426v-77h163v-678zM646 686h87v714l200 -714h47l201 724v-724h89v755h-150l-163 -539l-148 539h-163v-755z" />
    <glyph glyph-name="Delta" unicode="&#x2206;" horiz-adv-x="988" 
d="M297 115l228 770l165 -770h-393zM90 0h808c-140 563 -162 640 -302 1203h-203z" />
    <glyph glyph-name="product" unicode="&#x220f;" horiz-adv-x="1188" 
d="M152 0h184v1600h520v-1600h184v1715h-888v-1715z" />
    <glyph glyph-name="integral" unicode="&#x222b;" horiz-adv-x="500" 
d="M-41 -381c37 -9 81 -13 122 -13c205 0 217 175 217 284v1488c0 71 -5 158 115 158c13 0 62 -3 74 -6v109c-37 9 -81 13 -122 13c-205 0 -217 -176 -217 -285v-1487c0 -71 5 -158 -115 -158c-13 0 -62 3 -74 6v-109z" />
    <glyph glyph-name="commaaccent" unicode="&#xf6c3;" horiz-adv-x="502" 
d="M205 -522c141 15 136 206 136 435h-185v-179h128c0 -47 -14 -168 -106 -201z" />
    <glyph glyph-name="ff" unicode="&#xfb00;" horiz-adv-x="1074" 
d="M187 0h150v1114h347v-1114h150v1114h192v84h-192v180c0 71 -5 158 115 158c13 0 62 -3 74 -6v109c-37 9 -81 13 -122 13c-233 0 -217 -227 -217 -325v-129h-347v180c0 71 -5 158 115 158c13 0 62 -3 74 -6v109c-37 9 -81 13 -122 13c-233 0 -217 -227 -217 -325v-129
h-167v-84h167v-1114z" />
    <glyph glyph-name="fi" unicode="&#xfb01;" horiz-adv-x="952" 
d="M187 0h150v1114h342v-1114h150v1198h-492v180c0 71 -5 158 115 158c13 0 62 -3 74 -6v109c-37 9 -81 13 -122 13c-233 0 -217 -227 -217 -325v-129h-167v-84h167v-1114zM679 1472h150v179h-150v-179z" />
    <glyph glyph-name="fl" unicode="&#xfb02;" horiz-adv-x="989" 
d="M187 0h150v1114h192v84h-192v180c0 138 55 164 188 164c43 0 172 -10 172 -10v-1532h150v1603s-118 50 -311 50c-224 0 -349 -46 -349 -286v-169h-167v-84h167v-1114z" />
    <glyph glyph-name="ffi" unicode="&#xfb03;" horiz-adv-x="1449" 
d="M187 0h150v1114h347v-1114h150v1114h342v-1114h150v1198h-492v180c0 71 -5 158 115 158c13 0 62 -3 74 -6v109c-37 9 -81 13 -122 13c-233 0 -217 -227 -217 -325v-129h-347v180c0 71 -5 158 115 158c13 0 62 -3 74 -6v109c-37 9 -81 13 -122 13
c-233 0 -217 -227 -217 -325v-129h-167v-84h167v-1114zM1176 1472h150v179h-150v-179z" />
    <glyph glyph-name="ffl" unicode="&#xfb04;" horiz-adv-x="1486" 
d="M187 0h150v1114h347v-1114h150v1114h249v84h-249v180c0 138 55 164 188 164c43 0 172 -10 172 -10v-1532h150v1603s-118 50 -311 50c-224 0 -349 -46 -349 -286v-169h-347v180c0 71 -5 158 115 158c13 0 62 -3 74 -6v109c-37 9 -81 13 -122 13
c-233 0 -217 -227 -217 -325v-129h-167v-84h167v-1114z" />
    <glyph glyph-name=".null" horiz-adv-x="-457" 
 />
    <glyph glyph-name="NULL" horiz-adv-x="334" 
 />
    <glyph glyph-name="cdieresis" horiz-adv-x="825" 
d="M158 1384h184v179h-184v-179zM542 1384h184v179h-184v-179zM108 568c0 -301 0 -595 327 -595c247 0 295 191 305 423v7h-151v-10c-10 -229 -47 -319 -154 -319c-148 0 -177 134 -177 494v62c0 354 20 494 177 494c111 0 146 -90 154 -309v-9h150c0 4 -1 7 -1 11
c-12 216 -64 408 -303 408c-327 0 -327 -316 -327 -595v-62z" />
    <glyph glyph-name="foundryicon" horiz-adv-x="1362" 
d="M221 277l459 327l469 -327l-170 542l461 349h-572l-188 542l-178 -542l-572 -11l459 -338z" />
    <glyph glyph-name="nbspace" horiz-adv-x="334" 
 />
    <glyph glyph-name="nonmarkingreturn" horiz-adv-x="629" 
 />
    <glyph glyph-name="tt" horiz-adv-x="1082" 
d="M179 283c0 -153 17 -301 210 -301c38 0 79 4 130 17v103c-29 -6 -59 -8 -88 -8c-98 0 -102 75 -102 196v824h338v-831c0 -153 17 -301 210 -301c38 0 79 4 130 17v103c-29 -6 -59 -8 -88 -8c-98 0 -102 75 -102 196v824h192v84h-192v425h-150v-425h-338v425h-150v-425
h-163v-84h163v-831z" />
    </font>
</defs>
</svg>
